<?xml version="1.0" encoding="UTF-8" standalone="no"?>
<svg
   xmlns:dc="http://purl.org/dc/elements/1.1/"
   xmlns:cc="http://creativecommons.org/ns#"
   xmlns:rdf="http://www.w3.org/1999/02/22-rdf-syntax-ns#"
   xmlns:svg="http://www.w3.org/2000/svg"
   xmlns="http://www.w3.org/2000/svg"
   viewBox="0 0 379.38666 97.533333"
   height="97.533333"
   width="379.38666"
   xml:space="preserve"
   id="svg2"
   version="1.1"><metadata
     id="metadata8"><rdf:RDF><cc:Work
         rdf:about=""><dc:format>image/svg+xml</dc:format><dc:type
           rdf:resource="http://purl.org/dc/dcmitype/StillImage" /></cc:Work></rdf:RDF></metadata><defs
     id="defs6" /><g
     transform="matrix(1.3333333,0,0,-1.3333333,0,97.533333)"
     id="g10"><g
       transform="scale(0.1)"
       id="g12"><path
         id="path14"
         style="fill:#211c1d;fill-opacity:1;fill-rule:nonzero;stroke:none"
         d="m 782.234,359.891 c 0,-17.508 5.637,-31.305 23.508,-31.305 17.871,0 26.863,10.672 26.863,29.988 v 22.184 c 0,25.906 -4.554,27.941 -13.308,27.941 h -1.68 v 1.324 h 1.797 c 5.395,0 8.035,-0.359 13.672,-0.359 5.641,0 7.914,0.359 13.316,0.359 h 1.797 v -1.324 h -1.679 c -8.633,0 -12.356,-2.511 -12.356,-27.941 v -22.184 c 0,-20.996 -9.711,-34.187 -33.578,-34.187 -18.109,0 -34.426,8.394 -34.426,31.902 v 24.59 c 0,26.023 -0.957,27.82 -7.191,27.82 h -1.68 v 1.324 h 1.797 c 5.402,0 9.476,-0.359 15.113,-0.359 6.117,0 9.957,0.359 15.352,0.359 h 1.801 v -1.324 h -1.68 c -6.836,0 -7.438,-2.273 -7.438,-27.82 v -20.988" /><path
         id="path16"
         style="fill:#211c1d;fill-opacity:1;fill-rule:nonzero;stroke:none"
         d="m 880.625,360.012 c 2.156,0 2.156,-0.246 0.48,4.074 l -11.156,29.023 -10.793,-29.023 c -0.718,-1.918 -1.082,-2.992 -1.082,-3.481 0,-0.593 0.481,-0.593 1.684,-0.593 z m -20.867,-1.321 c -2.641,0 -2.762,-0.722 -3.961,-3.839 l -0.359,-0.957 c -3.36,-8.993 -5.04,-13.672 -5.04,-19.188 0,-6.238 3.961,-8.035 11.997,-8.035 h 2.156 v -1.32 h -1.797 c -3.961,0 -11.992,0.363 -13.07,0.363 -5.157,0 -8.278,-0.363 -12.477,-0.363 h -1.316 v 1.32 h 1.437 c 7.914,0 10.676,10.789 16.789,27.586 l 14.992,40.414 c 4.68,12.832 7.555,17.629 7.555,17.629 h 1.32 c 0,0 3.598,-6.715 8.278,-19.071 l 17.508,-45.332 c 5.64,-14.753 8.277,-21.226 15.234,-21.226 h 2.156 v -1.32 h -2.156 c -7.438,0 -12.715,0.234 -18.234,0.234 -7.551,0 -10.551,-0.234 -17.508,-0.234 h -1.442 v 1.32 h 1.325 c 4.793,0 8.515,2.39 8.515,6.59 0,2.519 -1.324,6.472 -4.082,13.672 l -3,7.918 c -1.195,3.117 -1.316,3.839 -3.953,3.839 h -20.867" /><path
         id="path18"
         style="fill:#100f0d;fill-opacity:1;fill-rule:nonzero;stroke:none"
         d="M 2845.37,14.6562 V 284.07 c 0,1.211 -6.19,1.211 -6.19,0 0,-1.218 3.26,-261.3669 -239.07,-260.7497 -13.51,0.0586 -62.23,0.1563 -81.15,0.2735 -4.7,0 -7.59,2.1601 -7.59,4.5429 V 366.305 c 0,2.992 3.12,4.59 7.44,4.59 h 25.22 c 124.89,0 127.97,-138.797 127.97,-140.348 0,-1.531 4,-1.231 4,0 0,1.258 -0.3,282.699 -0.3,283.933 0,1.227 -5.24,1.551 -5.24,0 0,-1.55 10.81,-136.164 -123.38,-136.164 h -28.27 c -4.48,0 -7.44,1.563 -7.44,4.496 V 697.07 c 0,3.653 2.84,4.508 7.59,4.508 h 84.57 c 225.5,0 220.84,-242.922 220.84,-244.465 0,-1.543 4.95,-1.238 4.95,0 v 251.578 c 0,0 -649.29,-0.175 -650.81,-0.175 -1.57,0 -1.84,-7.094 -0.32,-7.094 h 70.92 c 0,0 7.7,-0.367 8.01,-4.313 0,-50.589 -0.1,-500.683 0,-507.375 C 2257.39,53.3594 2152.55,8.84766 2077.13,7.61719 1980.36,5.98438 1935.92,75.5469 1935.92,154.062 c 0,17.864 -0.33,521.508 -0.33,537.215 0,11.106 16.76,10.153 16.76,10.153 0,0 53.39,-0.008 54.32,-0.008 0.92,0 1.36,7.39 0,7.39 h -255.38 c -1.39,0 -1.69,-7.39 0,-7.39 1.71,0 54.18,0.105 54.18,0.105 0,0 12.59,0.52 12.91,-9.629 0.19,-6.468 0.61,-471.968 0.61,-471.968 0,-204.637 165.84,-220.164375 258.14,-219.715156 L 2077.24,0 c 78.49,1.33984 187.54,47.5664 187.22,189.465 v 0.269 c 0,57.286 0.03,459.707 0.03,507.375 0,4.254 7.38,4.313 7.38,4.313 0,0 111.37,-0.02 113.16,-0.02 1.88,0 7.46,-0.265 7.53,-4.586 0.06,-5.062 0,-611.5933 0,-670.234 0,-2.9687 -2.96,-4.539 -7.53,-4.539 h -51.09 c -1.37,0 -1.52,-7.3868 0,-7.3868 z M 1682.3,484.641 l 0.28,244.894 c 0,0 -1.06,2.055 -4.13,-0.789 -1.11,-1.055 -2.41,-2.332 -3.89,-3.855 -69.31,-70.805 -104.02,3.261 -204.74,6.535 -124.1,4.004 -278.28,-168.035 -280.25,-366.535 -2,-199.707 129.13,-353.6293 272.51,-359.08241 77.72,-2.96484 76.07,18.69531 171.98,48.37111 58.64,18.1836 86.26,-21.3203 88.43,-37.707 3.72,-2.4805 4,1.875 4,1.875 V 299.133 c 0,5.515 7.76,4.629 7.76,4.629 h 52.87 c 1.31,0 1.31,7.703 0,7.703 h -243.37 c -1.76,0 -1.76,-7.41 0.35,-7.41 h 57.16 c 0,0 10.64,1.101 10.52,-4.035 V 136.465 C 1611.78,10.5977 1486.36,9.19922 1450.92,13.1836 1319.77,28.0273 1317.04,298.73 1316.39,369.844 c -1.79,193.199 28.56,361.484 160.48,354.785 156.69,-7.945 197.69,-232.41 200.17,-242.481 5.2,-1.843 5.26,2.493 5.26,2.493 M 1139.69,367.574 C 1140.09,577.27 988.07,726.66 837.477,727.895 683.402,729.168 535.602,559.973 535.602,367.574 535.602,168.555 675.273,6.55469 835.051,5.96875 981.16,5.46094 1139.32,167.324 1139.69,367.574 m -126.92,3.692 C 1012.77,178.047 984.652,11.3672 837.766,11.5234 680.059,11.6797 662.438,168.152 662.438,371.266 c 0,193.211 37.089,351.14 174.093,351.062 147.332,-0.039 176.239,-164.457 176.239,-351.062 M 604.586,703.609 c 1.004,0 1.004,7.391 0,7.391 H 469.824 c -1.008,0 -1.008,-7.391 0,-7.391 h 56.606 c 6.011,0 6.105,-4.211 4.925,-8.511 -0.695,-2.614 -1.851,-5.231 -2.453,-7.036 -0.164,-0.457 -156.613,-483.804 -156.613,-483.804 -2.465,0.91 -5.531,9.172 -5.531,9.172 0,0 -176.051,481.472 -176.91,483.109 -4.301,7.981 10.14,7.375 10.14,7.375 h 51.692 c 0.984,0 1.465,7.383 0,7.383 H 1.25391 c -1.546879,0 -1.78516,-7.688 0,-7.688 1.75781,0 57.84769,-0.011 60.29689,0 6.9023,0.043 8.6133,0.391 12.0078,-11.379 11.207,-39.324 153.3394,-407.945 244.8824,-672.9136 0.86,-2.5976 1.848,-5.5391 1.848,-5.5391 0,0 85.082,265.2267 148.895,464.0777 24.336,75.786 45.543,141.879 57.796,180.012 5.243,16.34 8.872,27.61 10.36,32.254 0.027,0.051 0.058,0.156 0.066,0.215 0.133,0.344 0.196,0.562 0.282,0.824 0.234,0.711 0.421,1.301 0.453,1.363 1.527,4.457 2.148,7.77 5.75,9.575 2.148,1.082 5.379,1.617 10.539,1.511 z M 1.85547,667.762 c 0,-10.106 8.19143,-18.289 18.29683,-18.289 10.086,0 18.2891,8.183 18.2891,18.289 0,10.097 -8.2031,18.293 -18.2891,18.293 -10.1054,0 -18.29683,-8.196 -18.29683,-18.293 m 2.05469,0 c 0,8.945 7.25784,16.207 16.20314,16.207 8.9492,0 16.2109,-7.262 16.2109,-16.207 0,-8.957 -7.2617,-16.203 -16.2109,-16.203 -8.9453,0 -16.20314,7.246 -16.20314,16.203 m 17.05074,9.363 h -7.164 v -19.082 h 1.6328 v 8.812 h 4.9648 l 5.7383,-8.812 h 1.8008 l -5.6914,8.754 c 2.7266,0.445 4.914,1.973 4.914,5.058 0,3.454 -1.8867,5.27 -6.1953,5.27 m -0.2656,-1.434 c 2.2891,0 4.8359,-0.851 4.8359,-3.796 0,-3.321 -3.1484,-3.614 -6.0351,-3.614 h -4.0664 v 7.41 h 5.2656" /></g></g></svg>