<svg width="541" height="140" viewBox="0 0 541 140" xmlns="http://www.w3.org/2000/svg"><title>logo</title><g fill="#fff" fill-rule="evenodd"><path d="M149.225 70.878c0 3.32 1.07 5.937 4.458 5.937 3.39 0 5.095-2.024 5.095-5.688V66.92c0-4.913-.864-5.3-2.524-5.3h-.32v-.25h.342c1.023 0 1.524.068 2.593.068 1.07 0 1.5-.068 2.525-.068h.34v.25h-.318c-1.637 0-2.343.477-2.343 5.3v4.207c0 3.983-1.842 6.484-6.37 6.484-3.433 0-6.528-1.59-6.528-6.05v-4.663c0-4.935-.18-5.276-1.364-5.276h-.318v-.25h.34c1.025 0 1.798.068 2.867.068 1.16 0 1.89-.068 2.912-.068h.342v.25h-.32c-1.295 0-1.41.432-1.41 5.277v3.98M167.885 70.855c.41 0 .41.046.09-.773l-2.114-5.504-2.046 5.504c-.137.364-.206.568-.206.66 0 .113.092.113.32.113h3.957zm-3.957.25c-.5 0-.524.137-.75.728l-.07.182c-.637 1.705-.955 2.593-.955 3.64 0 1.182.75 1.523 2.275 1.523h.41v.25h-.342c-.75 0-2.274-.07-2.48-.07-.977 0-1.57.07-2.365.07h-.25v-.25h.274c1.5 0 2.025-2.046 3.184-5.232l2.843-7.665c.89-2.432 1.434-3.342 1.434-3.342h.25s.683 1.273 1.57 3.617l3.32 8.597c1.07 2.798 1.57 4.026 2.89 4.026h.41v.25h-.41c-1.41 0-2.41-.044-3.458-.044-1.432 0-2 .044-3.32.044h-.274v-.25h.25c.91 0 1.616-.453 1.616-1.25 0-.478-.25-1.227-.774-2.593l-.57-1.502c-.226-.59-.25-.728-.75-.728h-3.956z"/><path d="M540.515 136.354V85.258c0-.23-1.174-.23-1.174 0s.62 49.57-45.34 49.453c-2.563-.01-11.803-.03-15.392-.05-.89 0-1.44-.41-1.44-.862V69.66c0-.566.593-.87 1.412-.87h4.783c23.686 0 24.27 26.325 24.27 26.62 0 .29.76.232.76 0l-.058-53.85c0-.234-.993-.295-.993 0 0 .293 2.05 25.823-23.4 25.823h-5.362c-.85 0-1.41-.296-1.41-.852V6.93c0-.694.537-.856 1.438-.856h16.04c42.768 0 41.884 46.072 41.884 46.365 0 .29.94.234.94 0V4.724l-123.433.033c-.298 0-.35 1.346-.06 1.346h13.45s1.46.07 1.518.818c0 9.594-.02 94.958 0 96.227.052 25.864-19.832 34.306-34.136 34.54-18.353.31-26.782-12.884-26.782-27.775 0-3.388-.062-98.908-.062-101.887 0-2.107 3.178-1.926 3.178-1.926l10.303.002c.173 0 .256-1.402 0-1.402h-48.436c-.264 0-.32 1.402 0 1.402l10.275-.02s2.387-.1 2.448 1.826c.036 1.227.116 89.512.116 89.512 0 38.81 31.452 41.756 48.958 41.67l.02.042c14.887-.254 35.57-9.02 35.508-35.934v-.05l.006-96.228c0-.807 1.4-.818 1.4-.818l21.46.003c.358 0 1.416.05 1.43.87.01.96 0 115.994 0 127.115 0 .563-.562.86-1.43.86h-9.688c-.26 0-.288 1.402 0 1.402h96.997zM319.93 47.218L319.98.772s-.2-.39-.783.15c-.21.2-.458.442-.74.73-13.144 13.43-19.727-.618-38.83-1.24-23.536-.758-52.777 31.87-53.15 69.517-.38 37.875 24.49 67.068 51.683 68.102 14.74.563 14.427-3.546 32.617-9.174 11.122-3.448 16.36 4.044 16.772 7.152.705.47.758-.356.758-.356V82.4c0-1.045 1.472-.877 1.472-.877h10.027c.248 0 .248-1.46 0-1.46H293.65c-.334 0-.334 1.404.067 1.404h10.84s2.017-.208 1.995.766v31.02c0 23.87-23.787 24.136-30.51 23.38-24.872-2.815-25.39-54.156-25.513-67.643-.34-36.642 5.416-68.558 30.436-67.288 29.717 1.507 37.493 44.08 37.964 45.99.986.348.997-.474.997-.474zM217.02 69.42c.075-39.77-28.757-68.103-57.318-68.337C130.48.84 102.45 32.93 102.45 69.42c0 37.746 26.49 68.47 56.792 68.582 27.71.096 57.707-30.602 57.777-68.58zm-24.072-.7c0 36.646-5.333 68.258-33.19 68.228-29.912-.03-33.254-29.705-33.254-68.228 0-36.644 7.035-66.596 33.02-66.58 27.94.006 33.424 31.19 33.424 66.58zM115.532 5.69c.19 0 .19-1.403 0-1.403H89.974c-.19 0-.19 1.402 0 1.402h10.735c1.14 0 1.157.798.934 1.613-.132.496-.35.992-.466 1.335-.03.086-29.703 91.757-29.703 91.757-.467-.173-1.05-1.74-1.05-1.74S37.038 7.34 36.876 7.03c-.817-1.514 1.922-1.4 1.922-1.4H48.6c.188 0 .28-1.4 0-1.4H1.107c-.294 0-.34 1.46 0 1.46h11.436c1.31-.01 1.633-.075 2.277 2.157 2.124 7.458 29.08 77.37 46.443 127.623.163.493.35 1.05.35 1.05s16.137-50.3 28.24-88.015c4.615-14.373 8.637-26.91 10.96-34.14.995-3.1 1.683-5.237 1.966-6.118.004-.01.01-.03.01-.04.026-.066.038-.107.055-.157.044-.135.08-.247.086-.26.29-.844.408-1.472 1.09-1.815.408-.205 1.02-.306 2-.286h9.512zM1.22 12.487a3.47 3.47 0 1 0 6.937 0 3.47 3.47 0 0 0-6.937 0zm.39 0a3.075 3.075 0 1 1 6.15 0 3.075 3.075 0 0 1-6.15 0zm3.233-1.776H3.485v3.62h.31V12.66h.94l1.09 1.67h.34l-1.08-1.66c.518-.084.933-.374.933-.96 0-.654-.358-.998-1.175-.998zm-.05.272c.434 0 .917.16.917.72 0 .63-.597.685-1.144.685h-.772v-1.406h1z"/></g></svg>