<svg width="20" height="25" viewBox="0 0 20 25" fill="none" xmlns="http://www.w3.org/2000/svg">
<path d="M19.8364 17.0685C19.7553 16.9429 19.6232 16.8591 19.4751 16.8391C17.5259 16.5845 16.1522 14.798 16.4068 12.8489C16.5866 11.472 17.5507 10.3255 18.8763 9.91201C19.1455 9.82573 19.2938 9.53759 19.2075 9.26839C19.1941 9.2265 19.1753 9.18649 19.1517 9.14935C18.2572 7.53506 16.6668 6.42486 14.8431 6.14185C13.9241 6.1857 13.0184 6.3797 12.1621 6.71612C11.5471 6.96362 10.8977 7.1152 10.2366 7.16549C9.57552 7.1152 8.9261 6.96362 8.31109 6.71612C7.45476 6.3797 6.54911 6.1857 5.63012 6.14185C3.71896 6.14185 0 8.85146 0 13.8193C0 18.5404 3.44358 24.5677 6.14197 24.5677C7.17156 24.577 8.18878 24.3427 9.1106 23.8839C9.45776 23.6925 9.84149 23.5766 10.2366 23.5441C10.6317 23.5766 11.0155 23.6925 11.3627 23.8839C12.2845 24.3427 13.3017 24.577 14.3313 24.5677C16.4708 24.5677 18.8856 20.8949 19.8969 17.4912C19.9393 17.3482 19.9172 17.1938 19.8364 17.0685Z" fill="#37474F"/>
<path d="M9.72469 6.14197C12.8327 6.13856 15.3515 3.61987 15.3548 0.511847C15.3548 0.229172 15.1257 0 14.843 0C11.735 0.00340687 9.21625 2.52209 9.21289 5.63012C9.21284 5.91279 9.44202 6.14197 9.72469 6.14197Z" fill="#37474F"/>
</svg>
