<svg width="20" height="25" viewBox="0 0 20 25" fill="none" xmlns="http://www.w3.org/2000/svg">
<path d="M19.8104 20.6161L18.6939 6.54795C18.6244 5.6416 17.8579 4.93159 16.9489 4.93159H14.7436V4.83247C14.7436 2.16782 12.5758 0 9.91118 0C7.24653 0 5.07871 2.16782 5.07871 4.83247V4.93159H2.87353C1.9645 4.93159 1.19795 5.64155 1.12861 6.54605L0.0118126 20.618C-0.0746132 21.7447 0.316256 22.8665 1.08413 23.6955C1.852 24.5245 2.94052 25 4.07055 25H15.7518C16.8817 25 17.9703 24.5245 18.7382 23.6955C19.5061 22.8664 19.8969 21.7447 19.8104 20.6161ZM6.54306 4.83247C6.54306 2.97529 8.05405 1.46436 9.91118 1.46436C11.7683 1.46436 13.2793 2.97534 13.2793 4.83247V4.93159H6.54306V4.83247ZM17.6639 22.7004C17.1649 23.239 16.4859 23.5356 15.7518 23.5356H4.0706C3.33642 23.5356 2.65742 23.239 2.15849 22.7004C1.65962 22.1618 1.41577 21.462 1.47182 20.7319L2.58852 6.65991C2.59985 6.51187 2.72505 6.39595 2.87353 6.39595H5.07871V8.19941C5.07871 8.60376 5.40654 8.93159 5.81088 8.93159C6.21523 8.93159 6.54306 8.60376 6.54306 8.19941V6.39595H13.2793V8.19941C13.2793 8.60376 13.6071 8.93159 14.0115 8.93159C14.4158 8.93159 14.7436 8.60376 14.7436 8.19941V6.39595H16.9489C17.0973 6.39595 17.2225 6.51191 17.234 6.66187L18.3505 20.73C18.4066 21.462 18.1627 22.1618 17.6639 22.7004Z" fill="white"/>
<path d="M13.2097 12.4162C12.9238 12.1303 12.4602 12.1303 12.1743 12.4162L8.90498 15.6856L7.64785 14.4284C7.36196 14.1425 6.89834 14.1425 6.6124 14.4284C6.32646 14.7144 6.32646 15.178 6.6124 15.4639L8.38726 17.2387C8.53022 17.3817 8.71763 17.4532 8.90493 17.4532C9.09224 17.4532 9.27969 17.3818 9.42261 17.2387L13.2096 13.4517C13.4956 13.1657 13.4956 12.7022 13.2097 12.4162Z" fill="white"/>
</svg>
