<svg width="12" height="10" viewBox="0 0 12 10" fill="none" xmlns="http://www.w3.org/2000/svg">
<path fill-rule="evenodd" clip-rule="evenodd" d="M10.9895 1.1958C11.0516 1.25771 11.1008 1.33125 11.1344 1.41222C11.168 1.49319 11.1853 1.58 11.1853 1.66766C11.1853 1.75532 11.168 1.84213 11.1344 1.92309C11.1008 2.00406 11.0516 2.07761 10.9895 2.13952L5.65775 8.8042C5.59584 8.86627 5.5223 8.91551 5.44133 8.94911C5.36036 8.98271 5.27356 9 5.18589 9C5.09823 9 5.01143 8.98271 4.93046 8.94911C4.84949 8.91551 4.77594 8.86627 4.71403 8.8042L1.18709 5.27592C1.06568 5.15022 0.998507 4.98187 1.00003 4.80712C1.00154 4.63238 1.07164 4.46522 1.1952 4.34165C1.31877 4.21808 1.48593 4.14799 1.66068 4.14647C1.83542 4.14495 2.00377 4.21213 2.12947 4.33353L5.18589 7.38996L10.0458 1.1958C10.1077 1.13373 10.1812 1.08449 10.2622 1.05089C10.3432 1.01729 10.43 1 10.5176 1C10.6053 1 10.6921 1.01729 10.7731 1.05089C10.854 1.08449 10.9276 1.13373 10.9895 1.1958Z" fill="#f5a7a7" stroke="#f5a7a7" stroke-width="0.1" stroke-linecap="round" stroke-linejoin="round"/>
</svg>
