<svg width="24" height="20" viewBox="0 0 24 20" fill="none" xmlns="http://www.w3.org/2000/svg">
<path d="M21.8906 0H2.10938C0.946266 0 0 0.946266 0 2.10938V12.7969C0 13.96 0.946266 14.9062 2.10938 14.9062H3.04688V17.9062C3.04688 18.6817 3.67772 19.3125 4.45312 19.3125H9.79688C10.5723 19.3125 11.2031 18.6817 11.2031 17.9062V14.9062H21.8906C23.0537 14.9062 24 13.96 24 12.7969V2.10938C24 0.946266 23.0537 0 21.8906 0ZM9.79688 17.9062H4.45312V13.8281C4.45312 12.3304 5.45255 10.7812 7.125 10.7812C8.79745 10.7812 9.79688 12.3304 9.79688 13.8281V17.9062ZM5.20312 7.45312C5.20312 6.39342 6.0653 5.53125 7.125 5.53125C8.1847 5.53125 9.04688 6.39342 9.04688 7.45312C9.04688 8.51283 8.1847 9.375 7.125 9.375C6.0653 9.375 5.20312 8.51283 5.20312 7.45312ZM22.5938 12.7969C22.5938 13.1846 22.2783 13.5 21.8906 13.5H11.1906C11.1216 12.508 10.7442 11.5391 10.1297 10.8004C9.86981 10.4879 9.57487 10.2233 9.2528 10.01C9.98569 9.39895 10.4531 8.47969 10.4531 7.45312C10.4531 5.61802 8.96011 4.125 7.125 4.125C5.28989 4.125 3.79688 5.61802 3.79688 7.45312C3.79688 8.47969 4.26431 9.39895 4.99725 10.0099C4.67513 10.2233 4.38019 10.4879 4.12031 10.8003C3.50578 11.5391 3.12844 12.508 3.05939 13.5H2.10938C1.72167 13.5 1.40625 13.1846 1.40625 12.7969V2.10938C1.40625 1.72167 1.72167 1.40625 2.10938 1.40625H21.8906C22.2783 1.40625 22.5938 1.72167 22.5938 2.10938V12.7969Z" fill="#935CE0"/>
<path d="M20.25 3.75H16.5C16.1117 3.75 15.7969 4.06481 15.7969 4.45312C15.7969 4.84144 16.1117 5.15625 16.5 5.15625H20.25C20.6383 5.15625 20.9531 4.84144 20.9531 4.45312C20.9531 4.06481 20.6383 3.75 20.25 3.75Z" fill="#935CE0"/>
<path d="M20.25 6.75H16.5C16.1117 6.75 15.7969 7.06481 15.7969 7.45312C15.7969 7.84144 16.1117 8.15625 16.5 8.15625H20.25C20.6383 8.15625 20.9531 7.84144 20.9531 7.45312C20.9531 7.06481 20.6383 6.75 20.25 6.75Z" fill="#935CE0"/>
<path d="M20.25 9.75H16.5C16.1117 9.75 15.7969 10.0648 15.7969 10.4531C15.7969 10.8414 16.1117 11.1562 16.5 11.1562H20.25C20.6383 11.1562 20.9531 10.8414 20.9531 10.4531C20.9531 10.0648 20.6383 9.75 20.25 9.75Z" fill="#935CE0"/>
<path d="M13.5 11.1562C13.8883 11.1562 14.2031 10.8415 14.2031 10.4531C14.2031 10.0648 13.8883 9.75 13.5 9.75C13.1117 9.75 12.7969 10.0648 12.7969 10.4531C12.7969 10.8415 13.1117 11.1562 13.5 11.1562Z" fill="#935CE0"/>
<path d="M13.5 8.15625C13.8883 8.15625 14.2031 7.84145 14.2031 7.45312C14.2031 7.0648 13.8883 6.75 13.5 6.75C13.1117 6.75 12.7969 7.0648 12.7969 7.45312C12.7969 7.84145 13.1117 8.15625 13.5 8.15625Z" fill="#935CE0"/>
<path d="M13.5 5.15637C13.8883 5.15637 14.2031 4.84157 14.2031 4.45325C14.2031 4.06492 13.8883 3.75012 13.5 3.75012C13.1117 3.75012 12.7969 4.06492 12.7969 4.45325C12.7969 4.84157 13.1117 5.15637 13.5 5.15637Z" fill="#935CE0"/>
</svg>
