<svg width="20" height="14" viewBox="0 0 20 14" fill="none" xmlns="http://www.w3.org/2000/svg">
<path d="M18.8533 4.62189L17.5448 3.77484L14.6879 0.219021C14.5768 0.0807445 14.4072 0 14.2276 0H2.23934C1.00457 0 0 0.985059 0 2.19588V10.0506C0 10.9542 0.625822 11.7168 1.47461 11.9446C1.70785 13.1144 2.76059 14 4.02079 14C5.25575 14 6.29126 13.1494 6.55173 12.0144H12.3306C12.5911 13.1494 13.6266 14 14.8615 14C16.0965 14 17.132 13.1494 17.3925 12.0144H17.9973C19.1016 12.0144 20 11.1335 20 10.0506V6.55332C20 5.75381 19.5613 5.016 18.8533 4.62189ZM16.0956 3.82793H11.4033V1.14911H13.9433L16.0956 3.82793ZM4.02079 12.8509C3.23622 12.8509 2.5979 12.225 2.5979 11.4556C2.5979 10.6863 3.23618 10.0604 4.02079 10.0604C4.8054 10.0604 5.44368 10.6863 5.44368 11.4556C5.44368 12.225 4.8054 12.8509 4.02079 12.8509ZM4.02079 8.91126C2.84934 8.91126 1.85715 9.67665 1.53586 10.7241C1.31637 10.5773 1.17188 10.3302 1.17188 10.0506V7.82979H2.19457C2.51817 7.82979 2.78051 7.57255 2.78051 7.25524C2.78051 6.93793 2.51817 6.68068 2.19457 6.68068H1.17188V2.19588C1.17188 1.61872 1.65075 1.14915 2.23934 1.14915H10.2314V10.8653H6.54435C6.27204 9.74617 5.24431 8.91126 4.02079 8.91126ZM14.8616 12.8509C14.077 12.8509 13.4387 12.225 13.4387 11.4556C13.4387 10.6863 14.0769 10.0604 14.8616 10.0604C15.6462 10.0604 16.2844 10.6863 16.2844 11.4556C16.2844 12.225 15.6461 12.8509 14.8616 12.8509ZM17.9973 10.8653H17.3851C17.1128 9.74621 16.085 8.91126 14.8616 8.91126C13.6381 8.91126 12.6103 9.74617 12.338 10.8653H11.4033V4.97704H17.2748L18.2253 5.59232C18.238 5.60055 18.251 5.60829 18.2643 5.61549C18.6121 5.80425 18.8282 6.16362 18.8282 6.55336V6.68068H17.6579C17.3343 6.68068 17.072 6.93793 17.072 7.25524C17.072 7.57255 17.3343 7.82979 17.6579 7.82979H18.8282V10.0506C18.8282 10.4999 18.4554 10.8653 17.9973 10.8653Z" fill="#f5a7a7"/>
</svg>
