<svg width="13" height="24" viewBox="0 0 13 24" fill="none" xmlns="http://www.w3.org/2000/svg">
<path d="M0.38714 12.7824H3.01791V23.6129C3.01791 23.8267 3.19116 24 3.405 24H7.86558C8.07942 24 8.25267 23.8267 8.25267 23.6129V12.8334H11.277C11.4736 12.8334 11.6391 12.6859 11.6616 12.4905L12.1209 8.50331C12.1335 8.39363 12.0988 8.28375 12.0254 8.20144C11.9519 8.11908 11.8468 8.07192 11.7364 8.07192H8.25286V5.5725C8.25286 4.81908 8.65851 4.437 9.45877 4.437C9.57281 4.437 11.7364 4.437 11.7364 4.437C11.9503 4.437 12.1235 4.26366 12.1235 4.04991V0.389953C12.1235 0.176109 11.9503 0.00285937 11.7364 0.00285937H8.59744C8.57531 0.00178125 8.52614 0 8.45367 0C7.90903 0 6.01589 0.106922 4.52044 1.48266C2.8635 3.00722 3.09384 4.83258 3.14888 5.14908V8.07183H0.387094C0.17325 8.07183 0 8.24508 0 8.45892V12.3953C4.6875e-05 12.609 0.173297 12.7824 0.38714 12.7824Z" fill="#385C8E"/>
</svg>
