<svg width="22" height="22" viewBox="0 0 22 22" fill="none" xmlns="http://www.w3.org/2000/svg">
<path d="M21.1691 9.08734L12.1955 9.08691C11.7992 9.08691 11.478 9.40806 11.478 9.80432V12.671C11.478 13.0672 11.7992 13.3884 12.1954 13.3884H17.2488C16.6955 14.8245 15.6627 16.0271 14.345 16.7913L16.4998 20.5214C19.9563 18.5223 21.9998 15.0148 21.9998 11.0884C21.9998 10.5293 21.9586 10.1297 21.8761 9.67967C21.8135 9.33777 21.5167 9.08734 21.1691 9.08734Z" fill="#167EE6"/>
<path d="M10.9999 17.6956C8.52691 17.6956 6.36798 16.3444 5.20847 14.345L1.47852 16.4949C3.37666 19.7847 6.93251 22 10.9999 22C12.9953 22 14.878 21.4628 16.4999 20.5265V20.5214L14.3452 16.7913C13.3596 17.3629 12.219 17.6956 10.9999 17.6956Z" fill="#12B347"/>
<path d="M16.5 20.5265V20.5214L14.3453 16.7913C13.3596 17.3629 12.2192 17.6956 11 17.6956V22C12.9953 22 14.8782 21.4627 16.5 20.5265Z" fill="#0F993E"/>
<path d="M4.30436 11C4.30436 9.78104 4.63703 8.6406 5.20855 7.65503L1.4786 5.50513C0.537196 7.12191 0 8.99957 0 11C0 13.0005 0.537196 14.8781 1.4786 16.4949L5.20855 14.345C4.63703 13.3594 4.30436 12.219 4.30436 11Z" fill="#FFD500"/>
<path d="M10.9999 4.30436C12.6126 4.30436 14.0939 4.87739 15.2509 5.83057C15.5364 6.0657 15.9512 6.04872 16.2127 5.78726L18.2438 3.75612C18.5405 3.45946 18.5194 2.97387 18.2025 2.69896C16.2639 1.0172 13.7417 0 10.9999 0C6.93251 0 3.37666 2.21534 1.47852 5.50513L5.20847 7.65503C6.36798 5.65556 8.52691 4.30436 10.9999 4.30436Z" fill="#FF4B26"/>
<path d="M15.251 5.83057C15.5364 6.0657 15.9513 6.04872 16.2128 5.78726L18.2439 3.75612C18.5405 3.45946 18.5194 2.97387 18.2025 2.69896C16.264 1.01716 13.7417 0 11 0V4.30436C12.6126 4.30436 14.094 4.87739 15.251 5.83057Z" fill="#D93F21"/>
</svg>
