<svg width="16" height="16" viewBox="0 0 16 16" fill="none" xmlns="http://www.w3.org/2000/svg">
<path d="M8 0C3.57803 0 0 3.57834 0 8C0 12.422 3.57834 16 8 16C12.422 16 16 12.4217 16 8C16 3.57803 12.4216 0 8 0ZM8 14.75C4.26897 14.75 1.25 11.7308 1.25 8C1.25 4.26897 4.26922 1.25 8 1.25C11.731 1.25 14.75 4.26922 14.75 8C14.75 11.731 11.7308 14.75 8 14.75Z" fill="#f5a7a7"/>
<path d="M8 6.69775C7.65481 6.69775 7.375 6.97757 7.375 7.32275V11.3475C7.375 11.6927 7.65481 11.9725 8 11.9725C8.34519 11.9725 8.625 11.6927 8.625 11.3475V7.32275C8.625 6.97757 8.34519 6.69775 8 6.69775Z" fill="#f5a7a7"/>
<path d="M8 5.9325C8.46599 5.9325 8.84375 5.55474 8.84375 5.08875C8.84375 4.62275 8.46599 4.245 8 4.245C7.53401 4.245 7.15625 4.62275 7.15625 5.08875C7.15625 5.55474 7.53401 5.9325 8 5.9325Z" fill="#f5a7a7"/>
</svg>
