<svg width="14" height="14" viewBox="0 0 14 14" fill="none" xmlns="http://www.w3.org/2000/svg">
<path d="M12.5 0H1.5C0.671572 0 0 0.671572 0 1.5V12.5C0 13.3284 0.671572 14 1.5 14H12.5C13.3284 14 14 13.3284 14 12.5V1.5C14 0.671572 13.3284 0 12.5 0ZM13 12.5C13 12.7762 12.7761 13 12.5 13H1.5C1.22385 13 0.99999 12.7762 0.99999 12.5V1.5C0.99999 1.22385 1.22385 0.99999 1.5 0.99999H12.5C12.7762 0.99999 13 1.22385 13 1.5V12.5H13Z" fill="#f5a7a7"/>
<path d="M4.50001 3H3.00001C2.72386 3 2.5 3.22386 2.5 3.50001C2.5 3.77616 2.72386 4.00002 3.00001 4.00002H4.50001C4.77616 4.00002 5.00002 3.77616 5.00002 3.50001C5.00002 3.22386 4.77616 3 4.50001 3Z" fill="#f5a7a7"/>
<path d="M11 3H6.50001C6.22386 3 6 3.22386 6 3.50001C6 3.77616 6.22386 4.00002 6.50001 4.00002H11C11.2762 4.00002 11.5 3.77616 11.5 3.50001C11.5 3.22386 11.2761 3 11 3Z" fill="#f5a7a7"/>
<path d="M4.50001 6.5H3.00001C2.72386 6.5 2.5 6.72386 2.5 7.00001C2.5 7.27616 2.72386 7.49999 3.00001 7.49999H4.50001C4.77616 7.49999 5.00002 7.27613 5.00002 6.99998C5.00002 6.72383 4.77616 6.5 4.50001 6.5Z" fill="#f5a7a7"/>
<path d="M11 6.5H6.50001C6.22386 6.5 6 6.72386 6 7.00001C6 7.27616 6.22386 7.49999 6.50001 7.49999H11C11.2762 7.49999 11.5 7.27613 11.5 6.99998C11.5 6.72383 11.2761 6.5 11 6.5Z" fill="#f5a7a7"/>
<path d="M4.50001 10H3.00001C2.72386 10 2.5 10.2239 2.5 10.5C2.5 10.7762 2.72386 11 3.00001 11H4.50001C4.77616 11 5.00002 10.7762 5.00002 10.5C5.00002 10.2239 4.77616 10 4.50001 10Z" fill="#f5a7a7"/>
<path d="M11 10H6.50001C6.22386 10 6 10.2239 6 10.5C6 10.7762 6.22386 11 6.50001 11H11C11.2762 11 11.5 10.7762 11.5 10.5C11.5 10.2239 11.2761 10 11 10Z" fill="#f5a7a7"/>
</svg>
