<svg width="105" height="62" viewBox="0 0 105 62" fill="none" xmlns="http://www.w3.org/2000/svg">
<path d="M18.6329 13.8921C18.4981 15.2689 18.0218 16.5945 17.9526 17.9801C17.8759 19.5134 18.6803 20.5487 19.1005 21.9524C19.134 22.064 19.1241 22.1502 19.016 22.1847C18.6871 21.85 17.3212 22.1746 16.8568 22.2566C14.7241 22.6334 12.7576 23.7868 11.2786 25.3418C9.80689 26.8894 8.73948 28.718 6.48438 29.2375C6.8196 29.1604 7.93179 30.1538 8.17327 30.3345C9.07772 31.0111 9.9437 31.7918 10.5563 32.7459C10.9408 33.3444 11.1672 34.022 11.5588 34.619C13.1855 37.0995 16.0802 38.0644 18.9482 37.5524C18.773 37.5836 18.4652 38.4374 18.4048 38.5722C18.0516 39.3581 17.7674 40.2288 17.6283 41.0795C17.3091 43.0321 17.9141 45.0187 18.6016 46.8291C18.9481 47.7416 19.3253 48.6562 19.4452 49.6241C19.5651 50.5915 19.3944 51.6414 18.753 52.38C19.6804 51.3122 21.2154 50.7473 22.5372 50.3421C23.4703 50.0561 24.4397 50.091 25.4097 50.1258C26.1032 50.1508 26.797 50.1758 27.4782 50.0833C29.1828 49.8522 30.6912 48.8934 31.8523 47.6664C32.7017 46.7691 34.3472 44.7412 34.3337 43.3762L34.5094 47.2708C34.5094 47.2708 34.5589 47.9472 34.5552 48.0039C34.5552 48.0039 34.9942 48.0142 35.5439 47.9909C35.5439 47.9909 36.2392 47.9849 36.3875 47.9661C36.3913 47.7652 36.3317 43.3705 36.3317 43.3692C36.3407 43.6034 36.944 44.1107 37.0881 44.2697C37.7481 44.9975 38.4675 45.6747 39.2377 46.2865C43.476 49.6534 49.8563 49.9665 54.2261 46.5741C57.9473 43.6854 58.9754 38.3624 56.8819 34.2102C54.6489 29.7808 49.126 28.6123 44.6041 27.8588C44.5974 27.8578 44.5906 27.8565 44.5838 27.8555C45.686 27.7397 46.7981 27.5156 47.8483 27.1652C50.5526 26.2624 53.2995 23.7865 54.3883 21.1692C55.2698 19.0499 55.1468 16.5422 54.0596 14.519C53.1749 12.8731 51.7021 11.579 50.0286 10.7292C48.1233 9.76221 45.9206 9.3463 43.8036 9.65734C41.9363 9.93176 40.2043 10.7539 38.6458 11.7858C37.8667 12.3016 37.143 12.8818 36.4149 13.4647C36.1237 13.6983 34.2789 15.3272 34.3542 15.6212C33.705 13.0882 31.8055 10.2739 29.5356 8.93794C27.6819 7.84708 25.4708 7.75761 23.4109 7.29325C22.1702 7.01369 20.9387 6.68655 19.7328 6.28332C19.5381 6.21806 18.0234 5.84519 17.9666 5.60752C18.6194 8.31614 18.9047 11.1134 18.6329 13.8921ZM21.2287 23.1169C20.4349 22.2182 19.7329 21.2011 19.4346 20.0431C19.1318 18.8686 19.2638 17.6246 19.5289 16.4411C19.7972 15.2437 20.1965 14.0792 20.4611 12.8808C20.7115 11.7462 20.7517 10.589 20.8206 9.43493C20.8322 9.24058 20.8219 8.86684 21.0539 8.78962C21.1477 8.75827 21.25 8.77095 21.3482 8.78363C22.5013 8.93253 23.6598 9.03925 24.8207 9.10436C25.9712 9.16848 27.1464 9.19555 28.2303 9.58382C29.2755 9.95827 30.1802 10.6529 30.9395 11.4582C31.6495 12.2108 32.2512 13.0614 32.8271 13.9172C33.0685 14.2755 33.2505 14.6705 33.3909 15.0787C33.4684 15.3046 33.5313 15.5352 33.5788 15.7689C33.6014 15.8786 33.7376 16.3257 33.6726 16.4146C32.3885 18.1638 30.9869 19.8556 30.0148 21.8051C29.2636 23.3116 28.776 24.9467 28.5864 26.6171C28.4087 28.182 28.3475 29.9954 29.1578 31.4089C29.6053 32.1893 30.3275 32.7746 31.068 33.2904C31.7154 33.7414 32.4003 34.159 33.1598 34.3784C33.2337 34.3998 33.3134 34.4223 33.3621 34.4816C33.408 34.5373 33.4166 34.6137 33.4234 34.6854C33.6397 36.9774 33.9673 39.3158 33.5371 41.6031C33.156 43.6278 31.9962 45.5221 30.772 47.1624C29.9959 48.2024 28.9726 49.1285 27.7122 49.4602C26.2632 49.8417 24.7402 49.3925 23.2423 49.3313C22.6496 49.3069 22.0542 49.3448 21.469 49.4427C20.6654 49.5773 20.298 50.5508 20.2584 49.3025C20.2134 47.8891 19.2593 46.217 18.9364 44.8396C18.4641 42.8249 18.525 40.8951 19.5334 39.0496C20.4128 37.4403 21.786 36.1477 23.2237 35.0289C24.1764 34.2873 25.204 33.4912 26.2911 32.9518C24.0868 34.0452 21.8858 35.137 19.6848 36.2287C18.9452 36.5956 18.1705 36.9712 17.3436 36.9689C16.5215 36.9668 15.7451 36.5878 15.0701 36.1222C13.3226 34.9165 12.0215 33.0947 11.1499 31.1881C10.9509 30.7529 10.7712 30.3084 10.6164 29.8557C10.5963 29.7969 10.4159 29.4029 10.4567 29.3455C10.5025 29.2811 10.5487 29.2167 10.5951 29.1523C11.4266 27.9972 12.2987 26.8744 13.1717 25.749C13.6996 25.0685 14.294 24.4171 15.0455 23.9917C16.124 23.3811 17.4449 23.2579 18.6595 23.3989C19.9797 23.5524 20.9224 24.2356 22.0865 24.8491C22.744 25.1954 23.2683 25.2962 23.7038 25.7284C22.9188 24.8222 22.0226 24.0159 21.2287 23.1169ZM33.0853 33.4671C32.9312 33.4455 32.7947 33.3786 32.6549 33.311C32.3099 33.1444 31.9889 32.9308 31.6984 32.682C31.4067 32.432 31.1464 32.147 30.9192 31.8382C30.6885 31.5252 30.4916 31.1879 30.3287 30.8356C30.1642 30.4801 30.0341 30.1089 29.9389 29.7293C29.8443 29.3515 29.7846 28.9648 29.7619 28.5751C29.6437 26.5173 30.4158 24.5045 31.4186 22.6996C32.8379 20.1457 34.7437 17.8641 36.9774 15.9688C38.4833 14.6913 40.168 13.5725 42.0615 12.9939C43.9483 12.4175 46.3961 12.3322 48.1063 13.4594C49.727 14.5276 51.0057 16.3833 51.4608 18.2494C51.9543 20.2725 51.4756 22.5635 50.0174 24.0593C49.0173 25.0852 47.653 25.6804 46.2834 26.1164C44.3876 26.7199 42.42 27.0649 40.4594 27.4081C40.2461 27.4456 40.0236 27.4825 39.8157 27.4221C39.4752 27.3229 39.265 26.9959 39.0608 26.7075C38.2276 25.5329 36.9918 24.6451 35.6071 24.2267C35.0761 24.0663 34.4908 23.976 33.9745 24.1783C33.3115 24.4381 32.4987 25.1382 32.218 25.7885C31.961 26.3837 31.9937 26.6602 31.8394 27.2896C31.815 27.3889 31.9729 27.8078 32.0064 27.9047C32.0651 28.0745 32.2632 28.1426 32.4208 28.231C32.9556 28.5309 33.1332 29.2037 33.2063 29.8093C33.3514 31.0123 33.6869 32.3178 33.4116 33.4983C33.4106 33.5025 33.4 33.5042 33.383 33.5042C33.3075 33.5042 33.1072 33.4701 33.0853 33.4671ZM32.851 26.0208C33.0357 25.651 33.3784 25.445 33.765 25.3226C34.2012 25.1847 34.6731 25.1338 35.1188 25.2372C36.4543 25.547 37.462 27.1297 37.673 28.4002C38.018 30.4784 36.5848 31.9636 34.9835 33.0439C34.9664 33.0555 34.9006 33.1301 34.9025 33.1517C34.811 31.9867 34.7314 30.8202 34.6131 29.6574C34.5542 29.0789 34.5216 28.495 34.3939 27.9261C34.3084 27.5451 34.0773 26.5551 33.5771 26.5079C33.0969 26.4625 32.6263 26.9291 32.4523 27.3306C32.6263 26.9066 32.6447 26.433 32.851 26.0208ZM41.6799 44.8864C38.1674 42.9818 35.9109 39.8733 35.0937 36.003C35.0122 35.6169 34.5811 34.2599 35.0878 34.0244C38.3254 32.5626 39.5695 28.7338 39.5695 28.7338C41.5533 29.103 43.5375 29.529 45.5297 29.8299C49.0437 30.3613 52.9893 32.6175 54.4891 35.9348C55.1096 37.3066 55.0084 38.9335 54.5672 40.3448C53.5585 43.5709 50.4992 46.0614 47.0819 46.2387C46.9392 46.2461 46.7964 46.2496 46.6537 46.2496C44.9201 46.2496 43.2051 45.7135 41.6799 44.8864Z" fill="url(#paint0_linear)"/>
<path d="M92.7376 17.9713C92.4381 17.9724 92.1656 18.0142 91.9207 18.0755C91.6771 18.1383 91.4465 18.2137 91.2358 18.3019C90.8072 18.475 90.4295 18.6833 90.0659 18.903C89.7041 19.124 89.3633 19.3599 89.0345 19.6104C88.871 19.7361 88.7098 19.8645 88.5506 19.997C88.3912 20.1305 88.2349 20.2663 88.0739 20.4176L87.2255 21.2486C86.9537 21.5357 86.6793 21.8211 86.41 22.1105C85.3483 23.2825 84.3823 24.5342 83.5001 25.8364C82.6248 27.1434 81.8372 28.5031 81.1297 29.8985C80.4304 31.298 79.8035 32.7292 79.2586 34.1875C78.986 34.9155 78.7338 35.6553 78.493 36.3881C78.2528 37.121 78.0284 37.8693 77.8316 38.6323C77.681 39.2182 77.5453 39.8129 77.4397 40.4186C77.2019 41.0675 76.987 41.7168 76.7467 42.3393C76.3499 43.375 75.859 44.3347 75.1541 45.0941C74.9801 45.2853 74.7958 45.4661 74.5997 45.6346C74.5016 45.7186 74.4017 45.8005 74.2986 45.8791L74.1493 45.9916C74.1021 46.026 74.0516 46.0609 73.9996 46.0955C73.7903 46.234 73.5632 46.3648 73.3368 46.4772C73.1108 46.5891 72.8791 46.6848 72.6723 46.7429C72.5734 46.7712 72.4805 46.7878 72.4146 46.7914C72.4118 46.7864 72.4088 46.7811 72.4059 46.7749C72.3823 46.7328 72.3559 46.6657 72.3331 46.5787C72.31 46.491 72.2908 46.3854 72.275 46.265L72.2632 46.1727L72.2521 46.073L72.2306 45.8732C72.2052 45.6062 72.1858 45.3388 72.173 45.0705C72.1483 44.5337 72.1506 43.9946 72.1793 43.4543C72.2078 42.9137 72.2638 42.3732 72.3315 41.8319C72.3419 41.7533 72.3533 41.6746 72.3641 41.5959C72.4498 41.4065 72.5321 41.216 72.6082 41.0243C72.7978 40.547 72.9633 40.0643 73.1037 39.5774C73.2427 39.0898 73.359 38.5988 73.4571 38.1061C73.6502 37.1199 73.7702 36.1265 73.8188 35.1277L71.7738 34.8143C71.5065 35.9191 71.2378 37.0351 71.0073 38.1702C70.8844 38.7814 70.7748 39.3989 70.683 40.0217C70.6561 40.0912 70.6297 40.1606 70.6019 40.2294C70.4382 40.6358 70.2524 41.0286 70.0453 41.4038C69.8391 41.7798 69.6088 42.1361 69.3554 42.4663C69.1045 42.7998 68.8317 43.1009 68.5261 43.3819C68.3745 43.5229 68.2142 43.6565 68.0489 43.7851C67.8839 43.9141 67.7123 44.0365 67.535 44.1524C66.1172 45.0757 64.3868 45.6418 62.6632 45.7655C62.2326 45.7974 61.7996 45.8014 61.3781 45.7721C60.9571 45.7427 60.5462 45.6792 60.1695 45.5733C59.7929 45.468 59.4531 45.3171 59.1852 45.1282C58.9156 44.9382 58.7242 44.712 58.5969 44.4347C58.5343 44.2952 58.4873 44.1419 58.4578 43.975C58.4306 43.8066 58.4161 43.6281 58.4209 43.4463C58.4316 43.0815 58.5056 42.6947 58.6326 42.3048C58.7592 41.9142 58.9373 41.5219 59.1428 41.1306C59.3504 40.7415 59.5793 40.3618 59.8312 39.9948C60.3341 39.2594 60.9302 38.579 61.5876 37.9524C62.2444 37.3239 62.9694 36.7572 63.734 36.2397C63.9258 36.1115 64.1194 35.9845 64.3166 35.863C64.5156 35.7399 64.7187 35.6167 64.9209 35.4968C65.3266 35.2573 65.7336 35.0212 66.1468 34.7982C66.5598 34.5747 66.9783 34.3625 67.4027 34.1652C67.8265 33.9663 68.2566 33.7823 68.6946 33.6226C69.5683 33.3011 70.4777 33.0602 71.4032 33.0348C71.6338 33.0267 71.8669 33.0447 72.0928 33.068C72.3124 33.0981 72.5291 33.1681 72.7239 33.2803C72.9173 33.3932 73.0901 33.5492 73.2074 33.746C73.2664 33.8437 73.3125 33.9507 73.3436 34.063C73.3735 34.1759 73.3886 34.2938 73.3887 34.4131C73.4258 34.1784 73.4035 33.9264 73.3043 33.6975C73.207 33.468 73.0404 33.2677 72.8405 33.1114C72.6393 32.9558 72.4046 32.8422 72.1562 32.7731C71.9115 32.7113 71.6687 32.6647 71.4203 32.6429C71.173 32.6188 70.9236 32.6075 70.6758 32.6138C70.4273 32.6165 70.1801 32.637 69.9341 32.6651C69.4427 32.7221 68.9565 32.8144 68.4804 32.9377C67.5263 33.1806 66.6045 33.5193 65.7088 33.904C65.2604 34.0959 64.8178 34.2988 64.3819 34.5131C64.1633 34.62 63.9482 34.7278 63.7306 34.8393C63.5108 34.9514 63.2939 35.0697 63.0779 35.1901C62.2154 35.6749 61.3919 36.239 60.6193 36.8765C59.8475 37.5145 59.1384 38.2402 58.513 39.0414C58.1991 39.4412 57.9122 39.8642 57.6505 40.3038C57.3915 40.7428 57.1485 41.2081 56.9551 41.714C56.7637 42.2194 56.6155 42.7672 56.5755 43.3527C56.556 43.6458 56.5649 43.9436 56.6023 44.246C56.6427 44.5493 56.7192 44.8584 56.8389 45.1587C56.9604 45.458 57.1232 45.7474 57.3245 46.0042C57.5242 46.2621 57.7572 46.4887 58.0054 46.6795C58.5034 47.0648 59.0524 47.3067 59.5906 47.4763C60.1314 47.6444 60.6702 47.7393 61.2027 47.7919C61.7355 47.8436 62.2628 47.8526 62.7879 47.8284C63.8416 47.7708 64.8676 47.5816 65.8673 47.2711C66.366 47.1151 66.8573 46.9303 67.3349 46.7096C67.812 46.4876 68.2771 46.2338 68.723 45.9435C68.9466 45.799 69.1649 45.6451 69.3773 45.4814C69.5897 45.3181 69.7973 45.1468 69.9962 44.9642C70.1482 44.8262 70.2961 44.6819 70.4391 44.5326C70.452 44.7529 70.4675 44.9731 70.4893 45.1933C70.5018 45.342 70.5216 45.4908 70.5391 45.6393C70.5595 45.7874 70.5808 45.9358 70.604 46.0837L70.6418 46.3054L70.6609 46.4162L70.6833 46.5339C70.715 46.6931 70.755 46.8656 70.8168 47.0491C70.8797 47.2319 70.9645 47.4294 71.0984 47.6245C71.1635 47.7218 71.2452 47.817 71.3339 47.9052C71.3831 47.9501 71.4151 47.984 71.5017 48.0492C71.5778 48.1047 71.6582 48.15 71.738 48.1856C71.8985 48.256 72.0504 48.2859 72.1852 48.2987C72.3189 48.3103 72.4396 48.306 72.5487 48.2942C72.7672 48.2698 72.9503 48.2205 73.1205 48.1649C73.4595 48.0521 73.7486 47.9079 74.0266 47.7527C74.3035 47.5963 74.5635 47.428 74.8204 47.2381C74.8847 47.1903 74.9488 47.1409 75.0142 47.0879C75.0835 47.0325 75.1365 46.9816 75.1955 46.9294C75.3109 46.8253 75.423 46.7169 75.5324 46.6059C75.7508 46.3836 75.9568 46.1484 76.1444 45.9C76.5203 45.4039 76.8281 44.8636 77.0709 44.3096C77.1404 44.152 77.2039 43.9934 77.2634 43.8341L77.2809 44.0342C77.3077 44.2512 77.34 44.4675 77.3903 44.6815C77.4836 45.1099 77.6299 45.5314 77.8246 45.9368C78.0254 46.3396 78.2764 46.7288 78.5995 47.0677C78.9162 47.4095 79.309 47.6962 79.729 47.8995C80.149 48.1041 80.5954 48.2296 81.0394 48.2895C81.4843 48.3487 81.9285 48.3453 82.3598 48.2863C82.7913 48.2279 83.2111 48.1183 83.6115 47.9625C83.7124 47.9258 83.8093 47.8785 83.9081 47.8368C84.0059 47.7932 84.096 47.7439 84.1901 47.6977C84.3744 47.6008 84.5554 47.4982 84.7286 47.3845C85.4253 46.9343 86.0258 46.3725 86.5369 45.7631C87.0483 45.1518 87.4834 44.5002 87.8784 43.8364C87.9845 43.6594 88.0878 43.4815 88.1898 43.3032C88.1812 43.3504 88.1721 43.3976 88.1636 43.4447C88.1056 43.7848 88.0462 44.1249 87.9928 44.465L87.9144 44.975L87.8751 45.2312C87.8616 45.32 87.8485 45.4109 87.8373 45.5042C87.8149 45.6911 87.7987 45.8872 87.8006 46.0951C87.8033 46.3027 87.8231 46.5232 87.8843 46.7506C87.944 46.9768 88.0489 47.2099 88.2007 47.4095C88.3494 47.6105 88.5458 47.7788 88.7546 47.8986C88.9642 48.0197 89.1838 48.0943 89.3967 48.1401C89.6103 48.1853 89.8188 48.2024 90.0209 48.2025C90.4244 48.2015 90.8093 48.1374 91.1723 48.038C91.8738 47.8495 92.5386 47.5776 93.1729 47.2693C93.8077 46.9605 94.4111 46.6111 95.0015 46.2538C96.1778 45.5378 97.3322 44.797 98.4772 44.0413C99.6217 43.2857 100.755 42.5152 101.883 41.7398C102.447 41.3521 103.015 40.9632 103.55 40.5316C104.085 40.1009 104.588 39.6243 105 39.0784C104.555 39.5981 104.029 40.0384 103.474 40.4322C102.918 40.8264 102.333 41.1768 101.746 41.5296C100.572 42.2346 99.3957 42.9338 98.2107 43.6161C97.026 44.2981 95.8318 44.965 94.6269 45.6011C94.0255 45.917 93.4221 46.2179 92.8074 46.4717C92.1932 46.7251 91.5684 46.9354 90.9352 47.0645C90.6328 47.1284 90.332 47.156 90.0494 47.1388C89.7683 47.1227 89.5126 47.0516 89.3462 46.9371C89.2629 46.8797 89.1993 46.8153 89.1508 46.7374C89.1015 46.6607 89.0691 46.5751 89.0489 46.4707C89.0075 46.2626 89.0291 45.9863 89.085 45.6876C89.0988 45.6126 89.1148 45.5357 89.1317 45.457L89.1883 45.2118L89.3023 44.719C89.3794 44.3907 89.4618 44.0645 89.5429 43.7384C89.7126 43.0885 89.8886 42.4421 90.0873 41.8053C90.2868 41.1684 90.497 40.5373 90.7327 39.9143C90.9679 39.2906 91.2157 38.6717 91.4811 38.0547C92.0093 36.8205 92.5817 35.5887 93.1512 34.3495L91.1397 33.5248C90.6644 34.8031 90.1814 36.0849 89.733 37.3951C89.508 38.0497 89.2977 38.7141 89.1016 39.3828C88.9042 40.0513 88.7336 40.7288 88.576 41.4062C88.525 41.6262 88.4775 41.8466 88.4313 42.067C88.0797 42.5491 87.7322 43.0315 87.3749 43.5006C86.9142 44.1001 86.4379 44.6798 85.9098 45.1903C85.3838 45.7017 84.8104 46.1459 84.1842 46.4708C84.0283 46.5527 83.8691 46.6271 83.708 46.6953C83.6269 46.7268 83.5455 46.7635 83.4652 46.7911C83.3845 46.8169 83.3067 46.8484 83.2249 46.87C82.9013 46.9659 82.5669 47.0236 82.2352 47.0404C81.572 47.0756 80.9149 46.9483 80.3975 46.6443C80.138 46.4937 79.9173 46.3025 79.7275 46.0723C79.5357 45.8454 79.3848 45.5756 79.2628 45.2886C79.1464 44.9982 79.0579 44.6892 79.0097 44.3692C78.9821 44.2101 78.9698 44.0476 78.9569 43.8859L78.9478 43.6264C78.945 43.5398 78.9396 43.454 78.9429 43.3664C78.9447 42.67 79.0245 41.9636 79.1561 41.2579C79.2874 40.5516 79.4692 39.8449 79.6811 39.14C79.893 38.4347 80.1364 37.7318 80.3879 37.0221C80.643 36.3135 80.9027 35.6172 81.1846 34.9248C81.744 33.5412 82.3563 32.1814 83.0463 30.8645C83.7281 29.5438 84.4802 28.2623 85.3094 27.0357C86.1314 25.8046 87.0344 24.6309 88.013 23.5269L88.7593 22.7105L89.5364 21.9235C89.652 21.8112 89.782 21.6934 89.9141 21.5791C90.0469 21.4647 90.183 21.3524 90.321 21.2429C90.5984 21.0264 90.8799 20.8151 91.1674 20.6302C91.4533 20.4455 91.7453 20.2764 92.0251 20.1551C92.1658 20.0905 92.3003 20.0453 92.4265 20.0073C92.5521 19.9709 92.6618 19.9564 92.7458 19.9514C92.8326 19.9456 92.8734 19.9594 92.8925 19.9654C92.9113 19.9728 92.9251 19.9751 92.9621 20.0102C92.9768 20.0392 93.0005 20.0551 93.0191 20.1002L93.0352 20.1285L93.0438 20.1425L93.0464 20.1469C93.0496 20.1512 93.0523 20.1597 93.0565 20.1695C93.0635 20.1912 93.0715 20.2262 93.0764 20.2746C93.081 20.3237 93.0827 20.3853 93.0812 20.4571C93.0796 20.528 93.0747 20.6138 93.0654 20.7027L93.0415 20.9657L93.018 21.2292C93.0082 21.3167 92.9929 21.4034 92.9807 21.4906L92.942 21.7521L92.9231 21.8831L92.8965 22.0124L92.7903 22.5308C92.6308 23.2188 92.4027 23.8934 92.1203 24.5502C91.8356 25.2059 91.5024 25.8478 91.1189 26.467C90.733 27.0851 90.3028 27.6823 89.8462 28.2658C88.9297 29.431 87.8894 30.5241 86.8124 31.5928C85.7363 32.6632 84.6156 33.7071 83.5226 34.7854C82.9754 35.3239 82.4364 35.8727 81.913 36.4358C81.6517 36.7178 81.398 37.0054 81.1446 37.2958C81.0197 37.4436 80.8974 37.5979 80.8017 37.769C80.7066 37.9397 80.6397 38.1288 80.6301 38.3203C80.6696 38.1323 80.762 37.9644 80.8763 37.8176C80.99 37.669 81.1254 37.5383 81.2664 37.4122C81.5535 37.1622 81.8437 36.9123 82.1393 36.6705C82.7254 36.1813 83.3232 35.7066 83.923 35.2334C85.1263 34.2901 86.342 33.3576 87.5307 32.372C88.1242 31.8786 88.7085 31.3696 89.2813 30.8422C89.8548 30.3155 90.405 29.7576 90.936 29.176C91.4669 28.5939 91.9688 27.9782 92.432 27.3274C92.8917 26.6741 93.3139 25.9852 93.6698 25.2571C94.027 24.53 94.328 23.7688 94.5528 22.9817C94.6065 22.7847 94.6543 22.5856 94.7036 22.3869L94.7399 22.2376L94.7686 22.0868L94.8253 21.785C94.8435 21.6844 94.8647 21.5838 94.8802 21.4828L94.9202 21.1785L94.9597 20.874C94.9736 20.7737 94.9841 20.6697 94.992 20.5507C94.9996 20.4321 95.0036 20.303 94.9975 20.1621C94.9906 20.0204 94.9729 19.866 94.9341 19.7029C94.9137 19.6208 94.8896 19.5376 94.8575 19.4534L94.8332 19.3914L94.8102 19.3414L94.763 19.2415C94.7064 19.1105 94.6151 18.9728 94.5263 18.8415C94.3279 18.5759 94.0413 18.3262 93.7104 18.1768C93.3878 18.0271 93.0484 17.9713 92.7563 17.9712C92.75 17.9712 92.7438 17.9713 92.7376 17.9713ZM72.343 46.7887C72.337 46.7867 72.3444 46.7853 72.3642 46.7915C72.3543 46.7908 72.347 46.7897 72.343 46.7887Z" fill="url(#paint1_linear)"/>
<path d="M92.8443 30.456C92.5049 31.1281 92.635 31.8745 93.1347 32.123C93.6345 32.3717 94.3147 32.0284 94.6542 31.3562C94.9936 30.6842 94.8637 29.9377 94.3638 29.6893C94.2535 29.6344 94.1342 29.6083 94.0119 29.6083C93.5802 29.6083 93.1089 29.9323 92.8443 30.456Z" fill="url(#paint2_linear)"/>
<path d="M14.8516 55.2971C14.8516 56.154 15.5514 56.8486 16.4148 56.8486C17.2782 56.8486 17.9781 56.154 17.9781 55.2971C17.9781 54.4402 17.2782 53.7458 16.4148 53.7458C15.5514 53.7458 14.8516 54.4402 14.8516 55.2971Z" fill="url(#paint3_linear)"/>
<path d="M0 28.8221C0 29.6789 0.700021 30.3737 1.56328 30.3737C2.42668 30.3737 3.12656 29.6789 3.12656 28.8221C3.12656 27.9653 2.42668 27.2706 1.56328 27.2706C0.700021 27.2706 0 27.9653 0 28.8221Z" fill="url(#paint4_linear)"/>
<path d="M13.2881 2.28834C13.2881 3.14524 13.988 3.83984 14.8514 3.83984C15.7146 3.83984 16.4146 3.14524 16.4146 2.28834C16.4146 1.43144 15.7146 0.736826 14.8514 0.736826C13.988 0.736826 13.2881 1.43144 13.2881 2.28834Z" fill="url(#paint5_linear)"/>
<path d="M30.107 54.0776L29.8015 53.7347H27.2771V56.1872H28.8715V57.5189H27.2771V60.2224L27.7687 60.4202V61.3037H25.4834V60.4202L25.9484 60.2224V57.5189H25.4834V56.1872H25.9484V53.4577L25.4834 53.286V52.4029H31.1434V54.0776H30.107Z" fill="#5A00C4"/>
<path d="M34.334 60.4202L34.8123 60.2224L34.6645 53.2861V52.4029H36.3376V53.2861L36.1409 59.9719H38.6653L38.971 59.6291H40.0074V61.3037H34.334V60.4202Z" fill="#5A00C4"/>
<path d="M47.0372 53.5893C45.2301 53.5893 43.7554 55.053 43.7554 56.8466C43.7554 58.6396 45.2301 60.1035 47.0372 60.1035C48.8441 60.1035 50.3189 58.6396 50.3189 56.8466C50.3189 55.053 48.8574 53.5893 47.0372 53.5893ZM47.0372 61.4355C44.4994 61.4355 42.4268 59.3651 42.4268 56.8466C42.4268 54.328 44.4994 52.2707 47.0372 52.2707C49.575 52.2707 51.6475 54.328 51.6475 56.8466C51.6475 59.3651 49.575 61.4355 47.0372 61.4355Z" fill="#5A00C4"/>
<path d="M63.2484 61.3037H61.7737L60.1262 56.016L58.4785 61.3037H57.0038L54.6654 53.4842L54.1738 53.286V52.4029H56.552V53.286L56.0604 53.4842L57.7479 59.1545L59.4884 53.5762H60.7639L62.5043 59.1545L64.1918 53.4842L63.6868 53.286V52.4029H66.0653V53.286L65.5869 53.4578L63.2484 61.3037Z" fill="#5A00C4"/>
<path d="M73.7997 56.1872V57.519H71.0494V59.9719H73.574L73.8795 59.6291H74.9159V61.3037H69.2559V60.4202L69.7209 60.2224V57.519H69.2559V56.1872H69.7209V53.4842L69.2559 53.2861V52.4029H74.9159V54.0776H73.8795L73.574 53.7347H71.0494V56.1872H73.7997Z" fill="#5A00C4"/>
<path d="M83.1421 55.6864C83.1421 54.6183 82.2519 53.7348 81.1624 53.7348H79.9135V57.6511H81.1624C82.2519 57.6511 83.1421 56.7676 83.1421 55.6864ZM82.3183 61.2906V60.407L82.6106 60.3019L81.7602 58.9168C81.5609 58.9564 81.3748 58.9697 81.1624 58.9697H79.9135V60.2489L80.3917 60.4203V61.3038H78.1064V60.4203L78.5715 60.2225V53.4578L78.1064 53.2861V52.403H81.149C82.9826 52.403 84.4575 53.8796 84.4708 55.6864C84.4708 56.8204 83.8861 57.8224 83.009 58.4158L84.0987 60.2225L84.6036 60.407V61.2906H82.3183Z" fill="#5A00C4"/>
<path d="M91.3546 61.3037H87.94V59.339H88.9765L89.282 59.9719H91.3546C92.0722 59.9719 92.6302 59.405 92.6302 58.7059C92.6302 57.928 91.9127 57.5719 91.3015 57.493L90.2253 57.3476C88.7771 57.1764 87.7939 56.1872 87.7939 54.9083C87.7939 53.5238 88.9232 52.4029 90.3182 52.4029H93.5071V54.3016H92.4707L92.1784 53.7347H90.3182C89.6673 53.7347 89.1358 54.262 89.1358 54.9083C89.1358 55.6202 89.8135 55.95 90.4114 56.0291L91.4744 56.1607C92.9756 56.3457 93.9853 57.3741 93.9853 58.6927C93.9853 60.1432 92.8162 61.3037 91.3546 61.3037Z" fill="#5A00C4"/>
<defs>
<linearGradient id="paint0_linear" x1="3.47578" y1="21.2165" x2="109.905" y2="57.125" gradientUnits="userSpaceOnUse">
<stop stop-color="#DCFF10"/>
<stop offset="0.170792" stop-color="#00D500"/>
<stop offset="0.480198" stop-color="#212EFF"/>
<stop offset="0.834158" stop-color="#010098"/>
<stop offset="1" stop-color="#FF0086"/>
</linearGradient>
<linearGradient id="paint1_linear" x1="7.33337" y1="9.78332" x2="113.762" y2="45.6918" gradientUnits="userSpaceOnUse">
<stop stop-color="#DCFF10"/>
<stop offset="0.170792" stop-color="#00D500"/>
<stop offset="0.480198" stop-color="#212EFF"/>
<stop offset="0.834158" stop-color="#010098"/>
<stop offset="1" stop-color="#FF0086"/>
</linearGradient>
<linearGradient id="paint2_linear" x1="9.63879" y1="2.95315" x2="116.067" y2="38.8614" gradientUnits="userSpaceOnUse">
<stop stop-color="#DCFF10"/>
<stop offset="0.170792" stop-color="#00D500"/>
<stop offset="0.480198" stop-color="#212EFF"/>
<stop offset="0.834158" stop-color="#010098"/>
<stop offset="1" stop-color="#FF0086"/>
</linearGradient>
<linearGradient id="paint3_linear" x1="8.05083" y1="57.8647" x2="156.102" y2="11.7227" gradientUnits="userSpaceOnUse">
<stop stop-color="#DCFF10"/>
<stop offset="0.170792" stop-color="#00D500"/>
<stop offset="0.480198" stop-color="#212EFF"/>
<stop offset="0.834158" stop-color="#010098"/>
<stop offset="1" stop-color="#FF0086"/>
</linearGradient>
<linearGradient id="paint4_linear" x1="-0.776656" y1="29.5405" x2="147.275" y2="-16.6016" gradientUnits="userSpaceOnUse">
<stop stop-color="#DCFF10"/>
<stop offset="0.170792" stop-color="#00D500"/>
<stop offset="0.480198" stop-color="#212EFF"/>
<stop offset="0.834158" stop-color="#010098"/>
<stop offset="1" stop-color="#FF0086"/>
</linearGradient>
<linearGradient id="paint5_linear" x1="-7.16404" y1="9.04669" x2="140.888" y2="-37.0952" gradientUnits="userSpaceOnUse">
<stop stop-color="#DCFF10"/>
<stop offset="0.170792" stop-color="#00D500"/>
<stop offset="0.480198" stop-color="#212EFF"/>
<stop offset="0.834158" stop-color="#010098"/>
<stop offset="1" stop-color="#FF0086"/>
</linearGradient>
</defs>
</svg>
