<svg width="21" height="21" viewBox="0 0 21 21" fill="none" xmlns="http://www.w3.org/2000/svg">
<rect width="21" height="21" rx="10.5" fill="#935CE0"/>
<path fill-rule="evenodd" clip-rule="evenodd" d="M14.9895 6.1958C15.0516 6.25771 15.1008 6.33125 15.1344 6.41222C15.168 6.49319 15.1853 6.58 15.1853 6.66766C15.1853 6.75532 15.168 6.84213 15.1344 6.92309C15.1008 7.00406 15.0516 7.07761 14.9895 7.13952L9.65775 13.8042C9.59584 13.8663 9.5223 13.9155 9.44133 13.9491C9.36036 13.9827 9.27356 14 9.18589 14C9.09823 14 9.01143 13.9827 8.93046 13.9491C8.84949 13.9155 8.77594 13.8663 8.71403 13.8042L5.18709 10.2759C5.06568 10.1502 4.99851 9.98187 5.00003 9.80712C5.00154 9.63238 5.07164 9.46522 5.1952 9.34165C5.31877 9.21808 5.48593 9.14799 5.66068 9.14647C5.83542 9.14495 6.00377 9.21213 6.12947 9.33353L9.18589 12.39L14.0458 6.1958C14.1077 6.13373 14.1812 6.08449 14.2622 6.05089C14.3432 6.01729 14.43 6 14.5176 6C14.6053 6 14.6921 6.01729 14.7731 6.05089C14.854 6.08449 14.9276 6.13373 14.9895 6.1958Z" fill="white" stroke="white" stroke-width="0.1" stroke-linecap="round" stroke-linejoin="round"/>
</svg>
