<svg width="19" height="19" viewBox="0 0 19 19" fill="none" xmlns="http://www.w3.org/2000/svg">
<g clip-path="url(#clip0)">
<path d="M18.4805 8.37443C18.4189 7.98845 18.056 7.7255 17.6701 7.78708C17.2841 7.84866 17.0211 8.2115 17.0827 8.59748C17.0834 8.60171 17.0841 8.6059 17.0848 8.61009C17.8055 12.8527 14.9505 16.8762 10.7078 17.597C6.46522 18.3177 2.44168 15.4626 1.72097 11.22C1.00026 6.97738 3.85536 2.95384 8.09794 2.23313C10.7071 1.78992 13.3628 2.7013 15.1499 4.65323L12.0147 5.6978C11.6439 5.82121 11.4433 6.22187 11.5666 6.59276C11.5667 6.59285 11.5667 6.59297 11.5668 6.59305C11.6902 6.96394 12.0908 7.16452 12.4617 7.04115C12.4619 7.04111 12.4619 7.04107 12.462 7.04107L16.7083 5.62565C16.9974 5.52936 17.1925 5.25878 17.1924 4.95404V0.707731C17.1924 0.316856 16.8756 0 16.4847 0C16.0938 0 15.777 0.316856 15.777 0.707731V3.293C12.1323 -0.173543 6.36744 -0.0291102 2.90089 3.61558C-0.565654 7.26027 -0.421262 13.0251 3.22347 16.4917C6.86821 19.9583 12.633 19.8138 16.0996 16.1691C18.0763 14.0907 18.9585 11.2026 18.4805 8.37443Z" fill="black"/>
</g>
<defs>
<clipPath id="clip0">
<rect width="19" height="19" fill="white"/>
</clipPath>
</defs>
</svg>
