<svg width="18" height="27" viewBox="0 0 18 27" fill="none" xmlns="http://www.w3.org/2000/svg">
<path d="M9.01292 22.6834L4.1459 17.679L5.72136 16.2294L9.00868 19.6096L12.2765 16.2315L13.856 17.6769L9.01292 22.6834ZM18 20.6719V6.32812C18 2.8388 15.0814 0 11.494 0H6.50602C2.9186 0 0 2.8388 0 6.32812V20.6719C0 24.1612 2.9186 27 6.50602 27H11.494C15.0814 27 18 24.1612 18 20.6719ZM11.494 2.10938C13.8857 2.10938 15.8313 4.00184 15.8313 6.32812V20.6719C15.8313 22.9982 13.8857 24.8906 11.494 24.8906H6.50602C4.11434 24.8906 2.16867 22.9982 2.16867 20.6719V6.32812C2.16867 4.00184 4.11434 2.10938 6.50602 2.10938H11.494ZM9 4.27148C8.40107 4.27148 7.91566 4.74362 7.91566 5.32617C7.91566 5.90872 8.40107 6.38086 9 6.38086C9.59893 6.38086 10.0843 5.90872 10.0843 5.32617C10.0843 4.74362 9.59893 4.27148 9 4.27148ZM9 8.49023C8.40107 8.49023 7.91566 8.96237 7.91566 9.54492C7.91566 10.1275 8.40107 10.5996 9 10.5996C9.59893 10.5996 10.0843 10.1275 10.0843 9.54492C10.0843 8.96237 9.59893 8.49023 9 8.49023ZM9 12.709C8.40107 12.709 7.91566 13.1811 7.91566 13.7637C7.91566 14.3462 8.40107 14.8184 9 14.8184C9.59893 14.8184 10.0843 14.3462 10.0843 13.7637C10.0843 13.1811 9.59893 12.709 9 12.709Z" fill="white"/>
</svg>
