<svg width="13" height="12" viewBox="0 0 13 12" fill="none" xmlns="http://www.w3.org/2000/svg">
<path d="M12.7082 5.42075C12.9593 5.18125 13.0479 4.82975 12.9396 4.503C12.8311 4.17625 12.5484 3.943 12.201 3.8935L9.11293 3.45425C8.9814 3.4355 8.86776 3.35475 8.80902 3.238L7.42841 0.499C7.27339 0.19125 6.95876 0 6.60811 0C6.25773 0 5.94309 0.19125 5.78807 0.499L4.40721 3.23825C4.34847 3.355 4.23457 3.43575 4.10305 3.4545L1.01493 3.89375C0.667867 3.943 0.384901 4.1765 0.276362 4.50325C0.168079 4.83 0.256698 5.1815 0.507741 5.421L2.7421 7.553C2.83736 7.644 2.88103 7.775 2.85856 7.903L2.33144 10.9135C2.28471 11.1785 2.3557 11.4362 2.5309 11.6395C2.80314 11.9562 3.27841 12.0528 3.65842 11.8573L6.42015 10.4358C6.53558 10.3765 6.6809 10.377 6.79608 10.4358L9.55806 11.8573C9.69239 11.9265 9.83566 11.9615 9.98353 11.9615C10.2535 11.9615 10.5094 11.844 10.6853 11.6395C10.8608 11.4362 10.9315 11.178 10.8848 10.9135L10.3574 7.903C10.3349 7.77475 10.3786 7.644 10.4739 7.553L12.7082 5.42075Z" fill="#E9EBEF"/>
</svg>
