<svg width="14" height="12" viewBox="0 0 14 12" fill="none" xmlns="http://www.w3.org/2000/svg">
<path d="M13.0349 5.42075C13.2859 5.18125 13.3746 4.82975 13.2663 4.503C13.1577 4.17625 12.875 3.943 12.5277 3.8935L9.43959 3.45425C9.30806 3.4355 9.19442 3.35475 9.13568 3.238L7.75507 0.499C7.60005 0.19125 7.28542 0 6.93477 0C6.58439 0 6.26975 0.19125 6.11473 0.499L4.73387 3.23825C4.67513 3.355 4.56123 3.43575 4.42971 3.4545L1.34159 3.89375C0.994527 3.943 0.711561 4.1765 0.603023 4.50325C0.49474 4.83 0.583358 5.1815 0.834401 5.421L3.06876 7.553C3.16402 7.644 3.20769 7.775 3.18522 7.903L2.6581 10.9135C2.61137 11.1785 2.68236 11.4362 2.85756 11.6395C3.1298 11.9562 3.60507 12.0528 3.98508 11.8573L6.74681 10.4358C6.86224 10.3765 7.00756 10.377 7.12274 10.4358L9.88472 11.8573C10.0191 11.9265 10.1623 11.9615 10.3102 11.9615C10.5801 11.9615 10.836 11.844 11.012 11.6395C11.1874 11.4362 11.2582 11.178 11.2114 10.9135L10.6841 7.903C10.6616 7.77475 10.7053 7.644 10.8005 7.553L13.0349 5.42075Z" fill="#FFCF3B"/>
</svg>
