<svg width="23" height="23" viewBox="0 0 23 23" fill="none" xmlns="http://www.w3.org/2000/svg">
<path d="M22.4088 7.47216L15.5278 0.591141C14.7396 -0.197092 13.457 -0.197002 12.6689 0.591141L4.03447 9.22558H2.02157C0.906876 9.22558 0 10.1325 0 11.2471V20.9784C0 22.0931 0.906876 23 2.02157 23H17.5032C18.6179 23 19.5248 22.0931 19.5248 20.9784V13.2151L22.4088 10.3311C23.1971 9.54288 23.1971 8.26039 22.4088 7.47216ZM13.6219 1.54411C13.7533 1.41275 13.9258 1.34703 14.0984 1.34703C14.2709 1.34703 14.4435 1.41275 14.5748 1.54411L18.1204 5.08972L13.9846 9.22558H5.94036L13.6219 1.54411ZM18.1771 20.9784C18.1771 21.35 17.8748 21.6523 17.5032 21.6523H2.02157C1.65 21.6523 1.34771 21.35 1.34771 20.9784V11.2471C1.34771 10.8756 1.65 10.5733 2.02157 10.5733H17.5032C17.8748 10.5733 18.1771 10.8756 18.1771 11.2471V20.9784ZM17.7774 9.24467C17.6877 9.23245 17.5962 9.22558 17.5032 9.22558H15.8905L19.0734 6.04264L20.0264 6.99565L17.7774 9.24467ZM21.4559 9.37814L19.5248 11.3092V11.2471C19.5248 10.7349 19.3329 10.2669 19.0178 9.91026L20.9794 7.94862L21.4559 8.42508C21.7186 8.68784 21.7186 9.11538 21.4559 9.37814Z" fill="#935CE0"/>
<path d="M2.69531 18.2649H5.20291V19.6126H2.69531V18.2649Z" fill="#935CE0"/>
<path d="M6.57129 18.2649H9.07889V19.6126H6.57129V18.2649Z" fill="#935CE0"/>
<path d="M10.4463 18.2649H12.9539V19.6126H10.4463V18.2649Z" fill="#935CE0"/>
<path d="M14.3213 18.2649H16.8289V19.6126H14.3213V18.2649Z" fill="#935CE0"/>
<path d="M7.24461 12.613H2.69531V16.6562H7.24461V12.613ZM5.89689 15.3085H4.04303V13.9608H5.89689V15.3085Z" fill="#935CE0"/>
</svg>
