<svg width="15" height="15" viewBox="0 0 15 15" fill="none" xmlns="http://www.w3.org/2000/svg">
<path d="M12.6348 6.29456C12.6528 4.17975 10.8516 2.24103 8.61968 1.97294C8.57529 1.96768 8.52693 1.95967 8.47574 1.95119C8.36524 1.93288 8.25097 1.91406 8.13567 1.91406C7.67822 1.91406 7.55594 2.2354 7.52375 2.42704C7.49245 2.61338 7.52231 2.76985 7.61235 2.89232C7.76384 3.09831 8.0304 3.13488 8.24449 3.16418C8.30724 3.17285 8.36645 3.18091 8.41602 3.19204C10.4213 3.64013 11.0966 4.34461 11.4266 6.3329C11.4346 6.38148 11.4383 6.44134 11.4421 6.50484C11.4565 6.74251 11.4865 7.23699 12.0181 7.23699H12.0182C12.0624 7.23699 12.11 7.23317 12.1595 7.22562C12.6546 7.15039 12.6391 6.69839 12.6316 6.48122C12.6295 6.42005 12.6275 6.3622 12.6327 6.32372C12.6341 6.31403 12.6348 6.30429 12.6348 6.29456Z" fill="white"/>
<path d="M8.00605 1.19664C8.06544 1.20093 8.12167 1.20503 8.16848 1.2122C11.4614 1.71861 12.9758 3.27879 13.3955 6.59751C13.4026 6.65392 13.4038 6.72272 13.4049 6.79558C13.4091 7.05487 13.4177 7.59426 13.997 7.60544L14.015 7.60562C14.1967 7.60562 14.3412 7.55084 14.4445 7.44268C14.6249 7.25406 14.6123 6.97386 14.6021 6.74867C14.5996 6.69342 14.5973 6.64139 14.5979 6.59583C14.6398 3.20165 11.7017 0.123819 8.31057 0.00936332C8.2965 0.00889748 8.28308 0.00964282 8.26952 0.0115528C8.26286 0.012531 8.25052 0.0137422 8.22937 0.0137422C8.19555 0.0137422 8.15395 0.0108074 8.10984 0.00782606C8.0565 0.00419253 7.99603 0 7.93473 0C7.39468 0 7.29201 0.38385 7.27888 0.612669C7.2486 1.14149 7.76018 1.17871 8.00605 1.19664Z" fill="white"/>
<path d="M13.2363 10.8868C13.1663 10.8333 13.0939 10.778 13.0262 10.7234C12.6666 10.4341 12.2841 10.1674 11.9142 9.90943C11.8374 9.85596 11.7607 9.80243 11.6842 9.74877C11.2103 9.41593 10.7843 9.25419 10.3818 9.25419C9.83974 9.25419 9.3671 9.55372 8.97701 10.1444C8.80418 10.4062 8.59451 10.5335 8.33611 10.5335C8.18332 10.5335 8.0097 10.4899 7.82015 10.4039C6.29067 9.71029 5.19851 8.64688 4.57396 7.24317C4.27206 6.56473 4.36993 6.12125 4.90126 5.76032C5.20298 5.55554 5.7646 5.1743 5.72481 4.44424C5.67977 3.61519 3.85052 1.12068 3.07979 0.837356C2.75347 0.717357 2.41062 0.716239 2.05891 0.834561C1.17289 1.13242 0.537069 1.65551 0.220021 2.34718C-0.0863599 3.01552 -0.0725246 3.80026 0.260036 4.6166C1.22143 6.97681 2.5731 9.03459 4.27765 10.7327C5.94609 12.395 7.99675 13.7566 10.3726 14.7797C10.5868 14.8718 10.8114 14.9221 10.9754 14.9587C11.0313 14.9713 11.0796 14.982 11.1147 14.9917C11.1341 14.9969 11.154 14.9998 11.174 15L11.1928 15.0001C11.1928 15.0001 11.1928 15.0001 11.1929 15.0001C12.3103 15.0001 13.6521 13.9789 14.0641 12.8148C14.4252 11.7955 13.766 11.2916 13.2363 10.8868Z" fill="white"/>
<path d="M8.50002 3.89274C8.3087 3.89759 7.91055 3.90746 7.77084 4.31297C7.70549 4.50248 7.71331 4.66701 7.79414 4.80201C7.91274 5.00008 8.13997 5.06078 8.34666 5.09409C9.09624 5.21437 9.48121 5.62887 9.55821 6.39843C9.59399 6.75726 9.83562 7.00784 10.1459 7.00784H10.1459C10.1688 7.00784 10.1923 7.00649 10.2156 7.00365C10.5887 6.95925 10.7696 6.68511 10.7533 6.1889C10.7592 5.67103 10.4882 5.08309 10.0273 4.61479C9.56473 4.14504 9.00717 3.88049 8.50002 3.89274Z" fill="white"/>
</svg>
