<svg width="281" height="164" viewBox="0 0 281 164" fill="none" xmlns="http://www.w3.org/2000/svg">
<path d="M49.8668 35.5438C49.506 39.2638 48.2312 42.8452 48.046 46.5891C47.8409 50.7318 49.9936 53.529 51.1181 57.3217C51.2077 57.6232 51.1811 57.8561 50.8918 57.9492C50.0116 57.0449 46.3563 57.9219 45.1134 58.1437C39.406 59.1615 34.1432 62.2779 30.1851 66.4795C26.2466 70.6607 23.39 75.6014 17.3549 77.005C18.2521 76.7968 21.2285 79.4808 21.8747 79.9689C24.2952 81.7972 26.6128 83.9065 28.2522 86.4842C29.2811 88.1015 29.887 89.9321 30.9351 91.5451C35.2885 98.2471 43.0352 100.854 50.7105 99.4709C50.2418 99.5552 49.418 101.862 49.2563 102.226C48.3111 104.35 47.5504 106.702 47.1781 109.001C46.324 114.276 47.9431 119.644 49.783 124.535C50.7101 127.001 51.7198 129.472 52.0406 132.087C52.3614 134.701 51.9046 137.537 50.188 139.533C52.6699 136.648 56.7779 135.122 60.3152 134.027C62.8126 133.254 65.4067 133.349 68.0028 133.443C69.8585 133.51 71.7154 133.578 73.5384 133.328C78.1001 132.703 82.1369 130.113 85.2444 126.797C87.5173 124.373 91.9211 118.894 91.885 115.206L92.3553 125.729C92.3553 125.729 92.4878 127.556 92.4778 127.709C92.4778 127.709 93.6527 127.737 95.1238 127.674C95.1238 127.674 96.9846 127.658 97.3814 127.607C97.3914 127.065 97.232 115.191 97.232 115.187C97.2562 115.82 98.8706 117.19 99.2564 117.62C101.023 119.587 102.948 121.416 105.009 123.069C116.352 132.166 133.426 133.012 145.121 123.846C155.079 116.041 157.831 101.659 152.228 90.4406C146.252 78.4729 131.472 75.3158 119.371 73.28C119.353 73.2773 119.335 73.2739 119.316 73.2712C122.266 72.9582 125.242 72.3526 128.053 71.406C135.29 68.9668 142.641 62.2771 145.555 55.2055C147.914 49.4794 147.585 42.7039 144.675 37.2377C142.308 32.7905 138.366 29.2941 133.887 26.9982C128.789 24.3854 122.894 23.2616 117.228 24.102C112.231 24.8435 107.596 27.0648 103.425 29.8527C101.34 31.2463 99.4031 32.814 97.4548 34.3889C96.6753 35.0202 91.7382 39.4212 91.9399 40.2155C90.2026 33.3718 85.1191 25.7678 79.0445 22.1583C74.0836 19.2109 68.1661 18.9692 62.6535 17.7145C59.3332 16.9592 56.0375 16.0753 52.8102 14.9858C52.2892 14.8095 48.2354 13.8021 48.0837 13.1599C49.8307 20.4783 50.5941 28.0361 49.8668 35.5438ZM56.8136 60.4681C54.6893 58.0397 52.8106 55.2918 52.0122 52.1631C51.2019 48.9898 51.555 45.6286 52.2646 42.431C52.9827 39.1957 54.0512 36.0493 54.7592 32.8113C55.4293 29.7457 55.5369 26.6194 55.7213 23.5011C55.7524 22.976 55.7248 21.9662 56.3456 21.7575C56.5969 21.6728 56.8705 21.7071 57.1333 21.7414C60.2192 22.1437 63.3197 22.432 66.4264 22.6079C69.5054 22.7812 72.6505 22.8543 75.5513 23.9034C78.3483 24.9151 80.7696 26.7918 82.8016 28.9677C84.7015 31.0011 86.3117 33.2994 87.8531 35.6116C88.499 36.5798 88.9862 37.6469 89.3619 38.7499C89.5694 39.36 89.7377 39.9833 89.8648 40.6147C89.9252 40.9111 90.2898 42.1191 90.1157 42.3594C86.6794 47.0853 82.9284 51.6565 80.327 56.9237C78.3164 60.994 77.0117 65.4119 76.5041 69.925C76.0285 74.1531 75.8648 79.0527 78.0332 82.872C79.2308 84.9805 81.1637 86.562 83.1455 87.9556C84.8779 89.174 86.7109 90.3024 88.7434 90.8952C88.9412 90.953 89.1544 91.0138 89.2847 91.174C89.4076 91.3245 89.4307 91.5308 89.4488 91.7245C90.0277 97.9172 90.9045 104.235 89.7531 110.415C88.7334 115.886 85.6294 121.004 82.3532 125.436C80.2762 128.246 77.5376 130.748 74.1647 131.644C70.2869 132.675 66.2109 131.461 62.2025 131.296C60.6161 131.23 59.0228 131.332 57.4567 131.597C55.306 131.961 54.3228 134.591 54.2168 131.218C54.0965 127.399 51.5431 122.882 50.679 119.16C49.415 113.716 49.5779 108.502 52.2765 103.516C54.6302 99.1679 58.3051 95.6755 62.1525 92.6526C64.7021 90.6489 67.4522 88.498 70.3614 87.0405C64.4623 89.9948 58.5721 92.9449 52.6819 95.8945C50.7024 96.8858 48.6293 97.9006 46.4162 97.8944C44.2163 97.8887 42.1385 96.8646 40.332 95.6066C35.6554 92.3489 32.1734 87.4266 29.8408 82.2753C29.3083 81.0996 28.8273 79.8985 28.4131 78.6754C28.3594 78.5164 27.8764 77.452 27.9855 77.2968C28.1081 77.1228 28.2318 76.9488 28.3559 76.7748C30.5812 73.6538 32.9153 70.6203 35.2516 67.5797C36.6643 65.7411 38.2549 63.981 40.2663 62.8315C43.1524 61.1819 46.6875 60.8489 49.9379 61.23C53.471 61.6446 55.9937 63.4906 59.1092 65.1482C60.8689 66.0837 62.272 66.3563 63.4373 67.5239C61.3365 65.0755 58.9382 62.8969 56.8136 60.4681ZM88.544 88.433C88.1317 88.3744 87.7663 88.1939 87.3921 88.011C86.4689 87.561 85.6098 86.9839 84.8325 86.3118C84.0518 85.6361 83.3553 84.8662 82.7471 84.0319C82.1296 83.1862 81.6029 82.2749 81.1668 81.3229C80.7265 80.3624 80.3784 79.3595 80.1237 78.334C79.8705 77.313 79.7107 76.2682 79.65 75.2153C79.3338 69.6555 81.4 64.217 84.0837 59.3405C87.882 52.4403 92.9823 46.2757 98.9601 41.1548C102.99 37.7031 107.499 34.6803 112.566 33.1169C117.616 31.5597 124.166 31.3291 128.743 34.3746C133.08 37.2608 136.502 42.2747 137.72 47.3167C139.041 52.7829 137.76 58.9729 133.857 63.0143C131.181 65.7861 127.53 67.3942 123.865 68.5722C118.791 70.2029 113.525 71.1349 108.279 72.0624C107.708 72.1636 107.112 72.2633 106.556 72.1001C105.645 71.8321 105.082 70.9486 104.536 70.1694C102.306 66.9957 98.9986 64.597 95.2929 63.4667C93.8717 63.0332 92.3053 62.7891 90.9237 63.3358C89.1495 64.0376 86.9741 65.9293 86.223 67.6864C85.5352 69.2944 85.6228 70.0416 85.2098 71.7421C85.1445 72.0104 85.5671 73.1422 85.6566 73.404C85.8138 73.8629 86.344 74.0469 86.7658 74.2856C88.197 75.096 88.6723 76.9138 88.8678 78.5499C89.2563 81.8003 90.1542 85.3278 89.4172 88.5173C89.4146 88.5284 89.3861 88.5331 89.3408 88.5331C89.1387 88.5331 88.6027 88.441 88.544 88.433ZM87.9169 68.3139C88.4114 67.3149 89.3285 66.7582 90.3632 66.4275C91.5304 66.0549 92.7933 65.9174 93.9862 66.1969C97.5601 67.0339 100.257 71.3101 100.822 74.7429C101.745 80.3578 97.9093 84.3707 93.6239 87.2896C93.5782 87.3208 93.4022 87.5225 93.4072 87.5806C93.1625 84.4331 92.9492 81.2813 92.6327 78.1395C92.4751 76.5765 92.3879 74.9989 92.046 73.4617C91.8174 72.4323 91.1988 69.7575 89.8602 69.6301C88.5751 69.5073 87.3157 70.7681 86.85 71.853C87.3157 70.7073 87.3648 69.4276 87.9169 68.3139ZM111.545 119.286C102.145 114.14 96.1059 105.742 93.919 95.2847C93.7008 94.2414 92.547 90.575 93.9032 89.9386C102.567 85.9892 105.897 75.6441 105.897 75.6441C111.206 76.6416 116.516 77.7927 121.848 78.6058C131.252 80.0413 141.811 86.1374 145.825 95.1003C147.485 98.8068 147.214 103.202 146.034 107.016C143.334 115.732 135.147 122.461 126.002 122.94C125.62 122.96 125.237 122.97 124.856 122.97C120.216 122.97 115.627 121.521 111.545 119.286Z" fill="white"/>
<path d="M248.185 46.5652C247.383 46.5683 246.654 46.6811 245.999 46.8466C245.347 47.0164 244.73 47.2201 244.165 47.4584C243.019 47.9261 242.008 48.4889 241.035 49.0826C240.066 49.6796 239.154 50.3172 238.274 50.9939C237.837 51.3335 237.405 51.6803 236.979 52.0384C236.553 52.3991 236.134 52.766 235.704 53.1748L233.433 55.42C232.706 56.1957 231.972 56.9668 231.251 57.7487C228.41 60.9155 225.824 64.2974 223.463 67.8157C221.121 71.3471 219.013 75.0209 217.12 78.7909C215.248 82.5721 213.57 86.4392 212.112 90.3794C211.383 92.3462 210.708 94.345 210.063 96.3249C209.421 98.3052 208.82 100.327 208.293 102.389C207.89 103.972 207.527 105.579 207.245 107.215C206.608 108.968 206.033 110.723 205.39 112.404C204.328 115.203 203.014 117.796 201.128 119.848C200.662 120.364 200.169 120.853 199.644 121.308C199.382 121.535 199.114 121.756 198.838 121.968L198.439 122.272C198.313 122.365 198.177 122.46 198.038 122.553C197.478 122.927 196.87 123.281 196.264 123.584C195.66 123.887 195.039 124.145 194.486 124.302C194.222 124.379 193.973 124.424 193.797 124.433C193.789 124.42 193.781 124.406 193.773 124.389C193.71 124.275 193.639 124.094 193.578 123.859C193.516 123.622 193.465 123.337 193.423 123.011L193.391 122.762L193.362 122.492L193.304 121.953C193.236 121.231 193.184 120.509 193.15 119.784C193.084 118.333 193.09 116.877 193.167 115.417C193.243 113.956 193.393 112.496 193.574 111.034C193.602 110.821 193.633 110.609 193.661 110.396C193.891 109.884 194.111 109.369 194.314 108.852C194.822 107.562 195.265 106.258 195.641 104.942C196.013 103.625 196.324 102.298 196.586 100.967C197.103 98.3021 197.424 95.6181 197.554 92.9195L192.081 92.0729C191.366 95.058 190.647 98.0731 190.03 101.14C189.701 102.791 189.408 104.46 189.162 106.143C189.09 106.33 189.02 106.518 188.945 106.704C188.507 107.802 188.01 108.863 187.456 109.877C186.904 110.893 186.288 111.856 185.61 112.747C184.938 113.649 184.208 114.462 183.39 115.221C182.984 115.602 182.555 115.963 182.113 116.311C181.671 116.659 181.212 116.99 180.738 117.303C176.943 119.798 172.313 121.327 167.7 121.662C166.548 121.748 165.389 121.759 164.261 121.679C163.134 121.6 162.034 121.428 161.026 121.142C160.018 120.858 159.109 120.45 158.392 119.94C157.671 119.426 157.158 118.815 156.818 118.066C156.65 117.689 156.524 117.275 156.445 116.824C156.373 116.369 156.334 115.887 156.347 115.395C156.375 114.41 156.573 113.365 156.913 112.311C157.252 111.256 157.729 110.196 158.279 109.139C158.834 108.087 159.447 107.061 160.121 106.07C161.467 104.083 163.062 102.245 164.821 100.552C166.579 98.8534 168.519 97.3224 170.566 95.9242C171.079 95.5777 171.597 95.2347 172.125 94.9063C172.657 94.5737 173.201 94.2407 173.742 93.9169C174.828 93.2698 175.917 92.6319 177.023 92.0294C178.128 91.4254 179.248 90.8521 180.384 90.319C181.518 89.7815 182.669 89.2845 183.841 88.853C186.179 87.9845 188.613 87.3335 191.09 87.265C191.707 87.243 192.331 87.2915 192.935 87.3547C193.523 87.4359 194.103 87.6249 194.624 87.9283C195.142 88.2332 195.604 88.6547 195.918 89.1864C196.076 89.4504 196.199 89.7396 196.283 90.0429C196.363 90.3478 196.403 90.6666 196.403 90.9888C196.503 90.3548 196.443 89.6737 196.177 89.0555C195.917 88.4353 195.471 87.894 194.936 87.4717C194.398 87.0513 193.77 86.7445 193.105 86.5578C192.45 86.3907 191.8 86.2648 191.136 86.2059C190.474 86.1408 189.806 86.1104 189.143 86.1274C188.478 86.1347 187.816 86.1901 187.158 86.266C185.843 86.4199 184.542 86.6694 183.268 87.0024C180.714 87.6588 178.247 88.5739 175.85 89.6133C174.65 90.1319 173.466 90.6801 172.3 91.2591C171.714 91.5478 171.139 91.8392 170.556 92.1403C169.968 92.4432 169.388 92.7628 168.81 93.0881C166.501 94.3981 164.298 95.9222 162.23 97.6446C160.164 99.3685 158.267 101.329 156.593 103.494C155.753 104.574 154.985 105.717 154.285 106.905C153.592 108.091 152.941 109.348 152.424 110.715C151.912 112.08 151.515 113.561 151.408 115.142C151.356 115.934 151.38 116.739 151.48 117.556C151.588 118.375 151.793 119.211 152.113 120.022C152.438 120.831 152.874 121.613 153.412 122.306C153.947 123.003 154.57 123.616 155.235 124.131C156.567 125.172 158.037 125.826 159.477 126.284C160.924 126.738 162.366 126.995 163.791 127.137C165.217 127.276 166.628 127.301 168.034 127.235C170.853 127.08 173.599 126.568 176.275 125.73C177.609 125.308 178.924 124.809 180.202 124.212C181.479 123.613 182.724 122.927 183.917 122.142C184.515 121.752 185.1 121.336 185.668 120.894C186.237 120.453 186.792 119.99 187.324 119.496C187.731 119.124 188.127 118.734 188.51 118.33C188.544 118.926 188.586 119.521 188.644 120.115C188.677 120.517 188.73 120.919 188.777 121.32C188.832 121.721 188.889 122.122 188.951 122.521L189.052 123.12L189.103 123.42L189.163 123.738C189.248 124.168 189.355 124.634 189.52 125.13C189.689 125.624 189.916 126.157 190.274 126.684C190.448 126.947 190.667 127.204 190.904 127.443C191.036 127.564 191.122 127.656 191.353 127.832C191.557 127.982 191.772 128.104 191.986 128.2C192.415 128.39 192.822 128.471 193.183 128.506C193.54 128.537 193.863 128.526 194.155 128.494C194.74 128.428 195.23 128.295 195.686 128.145C196.593 127.84 197.367 127.45 198.11 127.031C198.852 126.608 199.547 126.153 200.235 125.64C200.407 125.511 200.579 125.378 200.753 125.234C200.939 125.085 201.081 124.947 201.239 124.806C201.548 124.525 201.848 124.232 202.14 123.932C202.725 123.332 203.276 122.696 203.778 122.025C204.784 120.684 205.608 119.225 206.258 117.728C206.443 117.302 206.614 116.874 206.773 116.443L206.82 116.984C206.891 117.57 206.978 118.154 207.112 118.733C207.362 119.89 207.754 121.029 208.275 122.124C208.812 123.213 209.484 124.264 210.349 125.18C211.196 126.103 212.247 126.878 213.371 127.427C214.495 127.98 215.69 128.319 216.878 128.481C218.069 128.641 219.257 128.632 220.412 128.472C221.567 128.315 222.69 128.019 223.762 127.597C224.032 127.499 224.291 127.371 224.555 127.258C224.817 127.14 225.058 127.007 225.31 126.882C225.803 126.62 226.288 126.343 226.751 126.036C228.616 124.819 230.223 123.302 231.59 121.655C232.959 120.003 234.124 118.243 235.18 116.449C235.464 115.971 235.741 115.49 236.014 115.009C235.991 115.136 235.967 115.264 235.944 115.391C235.789 116.31 235.63 117.229 235.487 118.148L235.172 120.218C235.136 120.458 235.101 120.703 235.071 120.956C235.011 121.461 234.967 121.99 234.972 122.552C234.98 123.113 235.033 123.709 235.196 124.323C235.356 124.934 235.637 125.564 236.043 126.103C236.441 126.647 236.967 127.101 237.525 127.425C238.086 127.752 238.674 127.954 239.244 128.078C239.816 128.2 240.373 128.246 240.914 128.246C241.994 128.243 243.024 128.07 243.996 127.801C245.873 127.292 247.652 126.558 249.35 125.725C251.049 124.89 252.663 123.946 254.243 122.981C257.391 121.046 260.481 119.045 263.545 117.003C266.608 114.961 269.64 112.88 272.66 110.785C274.169 109.737 275.689 108.686 277.122 107.52C278.553 106.357 279.898 105.069 281 103.594C279.81 104.998 278.402 106.188 276.917 107.252C275.43 108.317 273.863 109.263 272.293 110.217C269.152 112.122 266.003 114.011 262.832 115.854C259.661 117.697 256.465 119.499 253.241 121.217C251.631 122.071 250.017 122.884 248.371 123.569C246.728 124.254 245.056 124.823 243.361 125.171C242.552 125.344 241.747 125.418 240.99 125.372C240.238 125.328 239.554 125.136 239.109 124.827C238.886 124.672 238.716 124.498 238.586 124.287C238.454 124.08 238.367 123.849 238.313 123.567C238.202 123.005 238.26 122.258 238.41 121.451C238.447 121.248 238.489 121.041 238.535 120.828L238.991 118.834C239.197 117.947 239.418 117.066 239.635 116.185C240.089 114.429 240.56 112.682 241.092 110.962C241.626 109.241 242.188 107.536 242.819 105.852C243.449 104.167 244.112 102.495 244.822 100.828C246.236 97.4933 247.767 94.1652 249.292 90.8171L243.908 88.5889C242.636 92.0425 241.344 95.5057 240.144 99.0459C239.542 100.814 238.979 102.61 238.454 104.416C237.926 106.223 237.469 108.053 237.047 109.883C236.911 110.478 236.784 111.073 236.66 111.669C235.719 112.971 234.789 114.275 233.833 115.542C232.6 117.162 231.325 118.728 229.912 120.107C228.505 121.489 226.97 122.689 225.294 123.567C224.877 123.789 224.451 123.989 224.02 124.174C223.803 124.259 223.585 124.358 223.37 124.433C223.154 124.502 222.946 124.587 222.727 124.646C221.861 124.905 220.966 125.061 220.078 125.106C218.303 125.201 216.545 124.857 215.16 124.036C214.466 123.629 213.875 123.113 213.367 122.49C212.854 121.878 212.45 121.148 212.124 120.373C211.812 119.588 211.575 118.753 211.446 117.889C211.372 117.459 211.339 117.02 211.305 116.583L211.281 115.882C211.273 115.648 211.259 115.416 211.268 115.179C211.272 113.298 211.486 111.389 211.838 109.483C212.189 107.574 212.676 105.665 213.243 103.76C213.81 101.855 214.461 99.9556 215.135 98.038C215.817 96.1236 216.512 94.2422 217.267 92.3713C218.764 88.6332 220.402 84.959 222.249 81.401C224.073 77.8327 226.086 74.3703 228.306 71.0561C230.505 67.7299 232.922 64.5585 235.541 61.5757L237.538 59.3698L239.618 57.2436C239.927 56.9402 240.275 56.6219 240.629 56.3131C240.984 56.004 241.348 55.7006 241.717 55.4046C242.46 54.8198 243.213 54.2489 243.983 53.7492C244.748 53.2503 245.529 52.7933 246.278 52.4657C246.654 52.2909 247.014 52.1689 247.352 52.0661C247.688 51.9679 247.982 51.9286 248.207 51.9152C248.439 51.8994 248.548 51.9367 248.599 51.9529C248.65 51.9729 248.686 51.9791 248.786 52.0742C248.825 52.1523 248.888 52.1954 248.938 52.3171L248.981 52.3937L249.004 52.4314L249.011 52.4434C249.02 52.4549 249.027 52.478 249.038 52.5046C249.057 52.5631 249.078 52.6578 249.091 52.7883C249.104 52.9211 249.108 53.0874 249.104 53.2815C249.1 53.4732 249.087 53.7049 249.062 53.9451L248.998 54.6558L248.935 55.3676C248.909 55.604 248.868 55.8384 248.835 56.074L248.732 56.7805L248.681 57.1343L248.326 58.8844C247.899 60.7434 247.288 62.5658 246.533 64.3406C245.771 66.1122 244.879 67.8465 243.853 69.5196C242.82 71.1896 241.669 72.8031 240.447 74.3795C237.994 77.5278 235.21 80.4813 232.328 83.3686C229.448 86.2609 226.449 89.0813 223.524 91.9947C222.059 93.4496 220.617 94.9325 219.216 96.4539C218.517 97.2158 217.838 97.993 217.16 98.7776C216.825 99.1768 216.498 99.5937 216.242 100.056C215.988 100.517 215.808 101.028 215.783 101.546C215.888 101.038 216.136 100.584 216.442 100.187C216.746 99.7858 217.108 99.4328 217.486 99.0921C218.254 98.4165 219.03 97.7412 219.821 97.0879C221.39 95.7663 222.99 94.4836 224.595 93.2051C227.815 90.6566 231.069 88.1369 234.25 85.4741C235.838 84.1409 237.402 82.7658 238.935 81.3406C240.47 79.9177 241.942 78.4102 243.363 76.8387C244.784 75.2661 246.127 73.6027 247.367 71.8441C248.597 70.079 249.727 68.2176 250.679 66.2504C251.635 64.2859 252.441 62.2294 253.043 60.1028C253.186 59.5704 253.314 59.0326 253.446 58.4955L253.543 58.0921L253.62 57.6848L253.772 56.8694C253.821 56.5976 253.877 56.3258 253.919 56.0529L254.026 55.2306L254.131 54.4079C254.169 54.1369 254.197 53.8558 254.218 53.5344C254.238 53.2141 254.249 52.8653 254.232 52.4846C254.214 52.1015 254.167 51.6846 254.063 51.2438C254.008 51.022 253.944 50.7972 253.858 50.5697L253.793 50.4022L253.731 50.2671L253.605 49.9972C253.454 49.6431 253.209 49.2712 252.971 48.9162C252.441 48.1987 251.674 47.5242 250.788 47.1203C249.925 46.7161 249.016 46.5652 248.235 46.5648C248.218 46.5648 248.201 46.5652 248.185 46.5652ZM193.605 124.426C193.589 124.421 193.609 124.417 193.662 124.434C193.635 124.432 193.616 124.429 193.605 124.426Z" fill="white"/>
<path d="M248.469 80.2973C247.56 82.1132 247.908 84.1301 249.246 84.8015C250.583 85.4733 252.404 84.5459 253.312 82.7296C254.221 80.914 253.873 78.8972 252.535 78.2258C252.24 78.0776 251.921 78.0071 251.593 78.0071C250.438 78.0071 249.177 78.8825 248.469 80.2973Z" fill="white"/>
<path d="M39.7456 147.415C39.7456 149.73 41.6186 151.607 43.9292 151.607C46.2398 151.607 48.1128 149.73 48.1128 147.415C48.1128 145.099 46.2398 143.223 43.9292 143.223C41.6186 143.223 39.7456 145.099 39.7456 147.415Z" fill="white"/>
<path d="M0 75.8829C0 78.1977 1.87338 80.0748 4.18361 80.0748C6.49422 80.0748 8.36722 78.1977 8.36722 75.8829C8.36722 73.5676 6.49422 71.6909 4.18361 71.6909C1.87338 71.6909 0 73.5676 0 75.8829Z" fill="white"/>
<path d="M35.562 4.19199C35.562 6.50722 37.435 8.38395 39.7456 8.38395C42.0559 8.38395 43.9293 6.50722 43.9293 4.19199C43.9293 1.87676 42.0559 0 39.7456 0C37.435 0 35.562 1.87676 35.562 4.19199Z" fill="white"/>
<path d="M80.5715 144.119L79.7539 143.193H72.9981V149.819H77.265V153.417H72.9981V160.722L74.3136 161.256V163.643H68.1978V161.256L69.4422 160.722V153.417H68.1978V149.819H69.4422V142.444L68.1978 141.981V139.595H83.3451V144.119H80.5715Z" fill="white"/>
<path d="M91.8825 161.256L93.1627 160.722L92.7669 141.981V139.594H97.2445V141.981L96.7181 160.045H103.474L104.292 159.119H107.066V163.643H91.8825V161.256Z" fill="white"/>
<path d="M125.879 142.8C121.043 142.8 117.096 146.755 117.096 151.601C117.096 156.446 121.043 160.401 125.879 160.401C130.714 160.401 134.661 156.446 134.661 151.601C134.661 146.755 130.75 142.8 125.879 142.8ZM125.879 164C119.087 164 113.54 158.406 113.54 151.601C113.54 144.796 119.087 139.238 125.879 139.238C132.67 139.238 138.217 144.796 138.217 151.601C138.217 158.406 132.67 164 125.879 164Z" fill="white"/>
<path d="M169.264 163.643H165.318L160.909 149.357L156.499 163.643H152.552L146.295 142.516L144.979 141.981V139.594H151.343V141.981L150.028 142.516L154.544 157.836L159.202 142.765H162.615L167.273 157.836L171.789 142.516L170.438 141.981V139.594H176.803V141.981L175.523 142.445L169.264 163.643Z" fill="white"/>
<path d="M197.503 149.819V153.418H190.142V160.045H196.899L197.716 159.119H200.49V163.643H185.342V161.256L186.587 160.722V153.418H185.342V149.819H186.587V142.516L185.342 141.981V139.594H200.49V144.119H197.716L196.899 143.193H190.142V149.819H197.503Z" fill="white"/>
<path d="M222.503 148.466C222.503 145.58 220.121 143.193 217.205 143.193H213.863V153.774H217.205C220.121 153.774 222.503 151.387 222.503 148.466ZM220.299 163.608V161.22L221.081 160.936L218.805 157.194C218.272 157.301 217.774 157.337 217.205 157.337H213.863V160.793L215.143 161.256V163.643H209.027V161.256L210.271 160.722V142.445L209.027 141.981V139.595H217.169C222.076 139.595 226.023 143.584 226.059 148.466C226.059 151.53 224.494 154.237 222.147 155.84L225.063 160.722L226.415 161.22V163.608H220.299Z" fill="white"/>
<path d="M244.481 163.643H235.343V158.335H238.117L238.935 160.045H244.481C246.402 160.045 247.895 158.513 247.895 156.625C247.895 154.523 245.975 153.561 244.339 153.347L241.459 152.955C237.583 152.492 234.952 149.819 234.952 146.364C234.952 142.623 237.974 139.594 241.708 139.594H250.242V144.725H247.468L246.686 143.193H241.708C239.966 143.193 238.543 144.618 238.543 146.364C238.543 148.287 240.357 149.178 241.957 149.392L244.802 149.748C248.819 150.247 251.522 153.026 251.522 156.589C251.522 160.508 248.393 163.643 244.481 163.643Z" fill="white"/>
</svg>
