<?xml version="1.0" encoding="UTF-8"?>
<svg xmlns="http://www.w3.org/2000/svg" xmlns:xlink="http://www.w3.org/1999/xlink" width="18px" height="18px" viewBox="0 0 18 18" version="1.1">
<g id="surface1">
<path style=" stroke:none;fill-rule:evenodd;fill-opacity:1;" fill="#f5a7a7" d="M 16.125 15.75 L 1.875 15.75 C 1.046875 15.75 0.375 15.078125 0.375 14.25 L 0.375 3.75 C 0.375 2.921875 1.046875 2.25 1.875 2.25 L 16.125 2.25 C 16.953125 2.25 17.625 2.921875 17.625 3.75 L 17.625 14.25 C 17.625 15.078125 16.953125 15.75 16.125 15.75 Z M 4.5 3 L 1.875 3 C 1.460938 3 1.125 3.335938 1.125 3.75 L 1.125 4.5 L 4.5 4.5 Z M 8.625 3 L 5.25 3 L 5.25 4.5 L 8.625 4.5 Z M 12.75 3 L 9.375 3 L 9.375 4.5 L 12.75 4.5 Z M 16.875 3.75 C 16.875 3.335938 16.539062 3 16.125 3 L 13.5 3 L 13.5 4.5 L 16.875 4.5 Z M 16.875 5.25 L 1.125 5.25 L 1.125 12.75 L 16.875 12.75 Z M 16.875 13.5 L 13.5 13.5 L 13.5 15 L 12.75 15 L 12.75 13.5 L 9.375 13.5 L 9.375 15 L 8.625 15 L 8.625 13.5 L 5.25 13.5 L 5.25 15 L 4.5 15 L 4.5 13.5 L 1.125 13.5 L 1.125 14.25 C 1.125 14.664062 1.460938 15 1.875 15 L 16.125 15 C 16.539062 15 16.875 14.664062 16.875 14.25 Z M 8.109375 11.160156 C 8.042969 11.214844 7.964844 11.25 7.875 11.25 C 7.667969 11.25 7.5 11.082031 7.5 10.875 L 7.5 7.125 C 7.5 6.917969 7.667969 6.75 7.875 6.75 C 7.953125 6.75 8.023438 6.78125 8.085938 6.824219 L 11 8.652344 C 11.144531 8.703125 11.25 8.835938 11.25 9 C 11.25 9.121094 11.1875 9.226562 11.097656 9.292969 Z M 8.109375 11.160156 "/>
</g>
</svg>
