<svg width="26" height="15" viewBox="0 0 26 15" fill="none" xmlns="http://www.w3.org/2000/svg">
<path d="M21.5753 8.60143C21.155 8.07643 21.2752 7.84286 21.5753 7.37357C21.5807 7.36821 25.0508 2.62607 25.4083 1.01786L25.4105 1.01679C25.5881 0.430714 25.4105 0 24.5514 0H21.7086C20.9849 0 20.6512 0.369643 20.4725 0.783214C20.4725 0.783214 19.0251 4.20964 16.9775 6.43071C16.3166 7.0725 16.0111 7.27821 15.6504 7.27821C15.4727 7.27821 15.1964 7.0725 15.1964 6.48643V1.01679C15.1964 0.313928 14.9939 0 14.3947 0H9.92476C9.47083 0 9.20107 0.327857 9.20107 0.633214C9.20107 1.29964 10.2249 1.45286 10.331 3.32786V7.39607C10.331 8.2875 10.1674 8.45143 9.80451 8.45143C8.83814 8.45143 6.49264 5.01107 5.10268 1.07357C4.82208 0.309643 4.54799 0.00107135 3.81888 0.00107135H0.975034C0.163589 0.00107135 0 0.370714 0 0.784286C0 1.515 0.966367 5.14821 4.49382 9.94821C6.84474 13.2246 10.1555 15 13.1673 15C14.9776 15 15.1986 14.6057 15.1986 13.9275C15.1986 10.7968 15.035 10.5011 15.9418 10.5011C16.3622 10.5011 17.0858 10.7068 18.7759 12.2871C20.7076 14.1611 21.025 15 22.1062 15H24.9489C25.7593 15 26.1699 14.6057 25.9337 13.8279C25.3931 12.1918 21.74 8.82643 21.5753 8.60143Z" fill="#4B729F"/>
</svg>
