<svg width="18" height="18" viewBox="0 0 18 18" fill="none" xmlns="http://www.w3.org/2000/svg">
<path d="M13.3188 10.3431C13.2837 10.3263 11.9715 9.68006 11.7383 9.59614C11.6431 9.56195 11.5411 9.52858 11.4326 9.52858C11.2554 9.52858 11.1066 9.61689 10.9906 9.79034C10.8596 9.98519 10.4627 10.449 10.3401 10.5876C10.3241 10.6059 10.3023 10.6278 10.2892 10.6278C10.2774 10.6278 10.0743 10.5441 10.0129 10.5174C8.60518 9.90594 7.53669 8.43549 7.39018 8.18752C7.36925 8.15187 7.36838 8.13568 7.3682 8.13568C7.37334 8.11681 7.42068 8.06935 7.44511 8.04487C7.51659 7.97415 7.59402 7.88094 7.66894 7.79076C7.70442 7.74804 7.73995 7.70526 7.77484 7.66494C7.88354 7.53847 7.93193 7.44029 7.98803 7.32656L8.01743 7.26748C8.15442 6.99531 8.03742 6.76564 7.9996 6.69147C7.96857 6.62941 7.41449 5.29215 7.35558 5.15166C7.21392 4.81264 7.02673 4.65479 6.7666 4.65479C6.74247 4.65479 6.7666 4.65479 6.66538 4.65905C6.54213 4.66425 5.87093 4.75262 5.57416 4.93969C5.25945 5.1381 4.72705 5.77055 4.72705 6.88281C4.72705 7.88386 5.36231 8.82904 5.63506 9.18851C5.64184 9.19757 5.65429 9.21598 5.67234 9.24239C6.71687 10.7678 8.01901 11.8983 9.33903 12.4256C10.6098 12.9333 11.2116 12.9919 11.5537 12.9919C11.5538 12.9919 11.5538 12.9919 11.5538 12.9919C11.6976 12.9919 11.8126 12.9807 11.9141 12.9707L11.9785 12.9645C12.4176 12.9256 13.3823 12.4257 13.6018 11.8159C13.7746 11.3355 13.8202 10.8107 13.7052 10.6203C13.6264 10.4908 13.4907 10.4256 13.3188 10.3431Z" fill="white"/>
<path d="M9.15977 0C4.28481 0 0.318727 3.93628 0.318727 8.7746C0.318727 10.3395 0.737519 11.8713 1.53086 13.212L0.0123761 17.6912C-0.0159097 17.7747 0.00512929 17.8671 0.0669021 17.9299C0.111493 17.9755 0.17198 18 0.233753 18C0.257422 18 0.281266 17.9964 0.304526 17.989L4.97518 16.5048C6.2533 17.1877 7.69786 17.5482 9.15983 17.5482C14.0343 17.5483 18 13.6124 18 8.7746C18 3.93628 14.0343 0 9.15977 0ZM9.15977 15.7204C7.78412 15.7204 6.45171 15.3232 5.30637 14.5717C5.26785 14.5463 5.22315 14.5334 5.17815 14.5334C5.15436 14.5334 5.13052 14.537 5.10732 14.5444L2.76761 15.2881L3.5229 13.0598C3.54733 12.9877 3.53512 12.9081 3.49012 12.8466C2.61794 11.6549 2.15689 10.2469 2.15689 8.7746C2.15689 4.94416 5.29836 1.82782 9.15971 1.82782C13.0206 1.82782 16.1617 4.94416 16.1617 8.7746C16.1618 12.6046 13.0207 15.7204 9.15977 15.7204Z" fill="white"/>
</svg>
